<?xml version="1.0" encoding="UTF-8" standalone="no"?>
<!-- Created with Inkscape (http://www.inkscape.org/) -->

<svg
   width="100.5mm"
   height="50.5mm"
   viewBox="0 0 100.5 50.5"
   version="1.1"
   id="svg1"
   xml:space="preserve"
   inkscape:version="1.3.2 (091e20e, 2023-11-25)"
   sodipodi:docname="diagram.svg"
   xmlns:inkscape="http://www.inkscape.org/namespaces/inkscape"
   xmlns:sodipodi="http://sodipodi.sourceforge.net/DTD/sodipodi-0.dtd"
   xmlns="http://www.w3.org/2000/svg"
   xmlns:svg="http://www.w3.org/2000/svg"><sodipodi:namedview
     id="namedview1"
     pagecolor="#ffffff"
     bordercolor="#000000"
     borderopacity="0.25"
     inkscape:showpageshadow="2"
     inkscape:pageopacity="0.0"
     inkscape:pagecheckerboard="0"
     inkscape:deskcolor="#d1d1d1"
     inkscape:document-units="mm"
     inkscape:zoom="2.4737701"
     inkscape:cx="110.96423"
     inkscape:cy="119.85754"
     inkscape:window-width="1312"
     inkscape:window-height="938"
     inkscape:window-x="0"
     inkscape:window-y="25"
     inkscape:window-maximized="0"
     inkscape:current-layer="g10" /><defs
     id="defs1" /><g
     inkscape:label="Layer 1"
     inkscape:groupmode="layer"
     id="layer1"
     transform="translate(-84.13015,-61.338577)"><rect
       style="fill:#000000;stroke:#000000;stroke-width:0.200001;stroke-linecap:round"
       id="rect1"
       width="0.89325279"
       height="9.8257809"
       x="136.50558"
       y="-18.749849"
       transform="matrix(0.70888565,0.70532343,-0.70888565,0.70532343,0,0)" /><rect
       style="fill:#000000;stroke:#000000;stroke-width:0.200001;stroke-linecap:round"
       id="rect1-3"
       width="0.89325279"
       height="9.8257809"
       x="145.63474"
       y="-27.878994"
       transform="matrix(0.70888565,0.70532343,-0.70888565,0.70532343,0,0)" /><rect
       style="fill:#000000;stroke:#000000;stroke-width:0.200001;stroke-linecap:round"
       id="rect1-3-6"
       width="0.89325279"
       height="9.8257809"
       x="158.62306"
       y="-40.86731"
       transform="matrix(0.70888565,0.70532343,-0.70888565,0.70532343,0,0)" /><rect
       style="fill:#000000;stroke:#000000;stroke-width:0.200001;stroke-linecap:round"
       id="rect1-3-6-4"
       width="0.89325279"
       height="9.8257809"
       x="149.34775"
       y="-50.142616"
       transform="matrix(0.70888565,0.70532343,-0.70888565,0.70532343,0,0)" /><path
       d="m 94.948611,85.898835 v 0.779797 h 0.772046 l 0.258899,-0.08475 0.06925,-0.06925 0.08113,-0.161231 v -0.149862 l -0.08113,-0.16123 -0.06925,-0.06925 -0.258899,-0.08423 z"
       style="stroke:none;stroke-width:0.2;stroke-linecap:round"
       id="path32" /><path
       d="m 91.808234,84.856005 v 3.959965 h 7.462077 v -3.959965 z m 3.032373,0.827339 h 0.899687 l 0.331763,0.10387 0.04237,0.02687 0.11989,0.127124 0.100252,0.199471 0.01189,0.05013 v 0.195853 l -0.01189,0.05013 -0.100252,0.199471 -0.11989,0.126607 -0.04237,0.02687 -0.335897,0.103869 0.594796,0.929659 0.0155,0.03876 v 0.04186 l -0.01964,0.03876 -0.03101,0.03049 -0.03824,0.0155 -0.04238,-0.0041 -0.03876,-0.01499 -0.02687,-0.03101 -0.668176,-1.044898 h -0.532784 v 0.987537 l -0.0078,0.04186 -0.02687,0.03462 -0.03514,0.02325 -0.03824,0.0078 -0.04289,-0.0078 -0.03462,-0.02325 -0.02325,-0.03462 -0.0078,-0.04186 v -2.090312 l 0.0078,-0.04186 0.02325,-0.03462 0.03462,-0.02325 z"
       style="stroke:none;stroke-width:0.2;stroke-linecap:round"
       id="path31" /><path
       d="m 106.30141,101.0788 v 0.7798 h 0.77256 l 0.25838,-0.0842 0.0698,-0.0692 0.0811,-0.16124 v -0.14986 l -0.0811,-0.16123 -0.0698,-0.0693 -0.25838,-0.0847 z"
       style="stroke:none;stroke-width:0.2;stroke-linecap:round"
       id="path35" /><path
       d="m 106.30141,102.07409 v 0.87954 h 0.77256 l 0.25838,-0.0842 0.0698,-0.0692 0.0811,-0.16124 v -0.25011 l -0.0811,-0.16123 -0.0698,-0.0692 -0.25838,-0.0842 z"
       style="stroke:none;stroke-width:0.2;stroke-linecap:round"
       id="path34" /><path
       d="m 104.90253,98.303765 v 7.424895 h 3.9796 v -7.424895 z m 1.29087,2.560055 h 0.89969 l 0.33228,0.10387 0.0424,0.0269 0.11989,0.12661 0.10026,0.19999 0.0114,0.0496 v 0.19585 l -0.0114,0.0501 -0.10026,0.19999 -0.11989,0.12661 -0.0388,0.0233 0.0388,0.0227 0.10026,0.0997 0.11989,0.22686 0.0114,0.0501 v 0.29559 l -0.0114,0.0501 -0.10026,0.19947 -0.11989,0.12713 -0.0424,0.0269 -0.33228,0.10387 h -0.89969 l -0.0424,-0.008 -0.0346,-0.0233 -0.0233,-0.0346 -0.008,-0.0424 v -2.08981 l 0.008,-0.0424 0.0233,-0.0346 0.0346,-0.0227 z"
       style="stroke:none;stroke-width:0.2;stroke-linecap:round"
       id="path33" /><path
       d="m 117.8454,98.303765 v 7.424895 h 3.98012 v -7.424895 z m 1.83969,2.560055 h 0.40152 l 0.046,0.0114 0.2279,0.11937 0.20102,0.19948 0.11937,0.22686 0.0119,0.0424 -0.004,0.0382 -0.0233,0.0382 -0.0305,0.0269 -0.0429,0.008 -0.0424,-0.004 -0.0346,-0.0191 -0.11989,-0.21911 -0.17363,-0.17312 -0.16227,-0.0806 h -0.34726 l -0.16227,0.0806 -0.17776,0.17312 -0.0847,0.17673 -0.0925,0.27647 v 0.46096 l 0.0925,0.27647 0.0847,0.17673 0.17776,0.17312 0.16227,0.0806 h 0.34726 l 0.16227,-0.0806 0.17363,-0.17312 0.0811,-0.16123 v -0.16485 l -0.43253,-0.008 -0.0346,-0.0233 -0.0233,-0.0382 -0.008,-0.0388 0.008,-0.0419 0.0233,-0.0346 0.0346,-0.0232 0.0424,-0.008 h 0.49817 l 0.0429,0.008 0.0346,0.0232 0.0232,0.0346 0.008,0.0419 v 0.29611 l -0.0114,0.0501 -0.10025,0.19947 -0.22015,0.22686 -0.22789,0.11886 -0.0465,0.0119 h -0.40152 l -0.0465,-0.0119 -0.23151,-0.11886 -0.19689,-0.19998 -0.11989,-0.22635 -0.108,-0.31161 -0.004,-0.53382 0.10387,-0.33021 0.10438,-0.2155 0.22015,-0.22634 0.23151,-0.11937 z"
       style="stroke:none;stroke-width:0.2;stroke-linecap:round"
       id="path36" /><path
       style="font-size:3.50131px;line-height:1;font-family:'AVHershey Simplex';-inkscape-font-specification:'AVHershey Simplex, Normal';text-align:center;text-anchor:middle;stroke-width:0.2;stroke-linecap:round"
       d="m 91.427868,90.778434 0.09103,-0.472677 0.196073,-0.308115 0.04902,-0.03852 0.304614,-0.09453 0.21358,0.0035 0.304614,0.112042 0.112042,0.210079 0.0105,0.03851 -0.0035,0.03851 -0.01751,0.03151 -0.03151,0.02451 -0.03851,0.0105 -0.03501,-0.007 -0.03501,-0.01751 -0.09454,-0.175065 -0.220582,-0.07353 h -0.147055 l -0.227585,0.07353 -0.150557,0.231086 -0.08403,0.448168 0.101538,-0.10504 0.03851,-0.02101 0.304614,-0.09804 0.122546,0.007 0.269601,0.09103 0.03851,0.02101 0.182069,0.182069 0.02451,0.03851 0.09103,0.273102 v 0.150557 l -0.09103,0.273102 -0.02451,0.03851 -0.182069,0.182068 -0.03851,0.02451 -0.269601,0.09103 h -0.154057 l -0.273103,-0.09103 -0.03851,-0.02451 -0.178567,-0.182068 -0.02801,-0.04552 -0.09103,-0.381643 z m 0.276603,0.766787 0.143554,0.147055 0.238089,0.07703 h 0.05602 l 0.234588,-0.07703 0.150556,-0.150557 0.07703,-0.234587 v -0.05952 l -0.07703,-0.234588 -0.150556,-0.147055 -0.234588,-0.08053 h -0.05602 l -0.238089,0.08053 -0.147055,0.147055 -0.07353,0.224084 z m 1.722643,-1.484556 -0.03501,-0.007 -0.03151,-0.02101 -0.02101,-0.03151 -0.0105,-0.03852 0.0105,-0.03851 0.02101,-0.03151 0.03151,-0.02101 0.03501,-0.007 h 0.997874 l 0.03851,0.007 0.04902,0.04552 0.007,0.07353 -0.01401,0.03151 -0.42716,0.567212 0.119045,0.0105 0.182068,0.09103 0.115543,0.108541 0.02451,0.03851 0.09103,0.273102 0.0035,0.21358 -0.09454,0.301113 -0.02451,0.03851 -0.182068,0.182068 -0.03851,0.02451 -0.2696,0.09103 -0.304614,0.0035 -0.301113,-0.09454 -0.03851,-0.02451 -0.09104,-0.09103 -0.10854,-0.206577 -0.0105,-0.03852 0.0035,-0.03501 0.02101,-0.03501 0.02801,-0.02451 0.03851,-0.0105 0.03851,0.007 0.03151,0.01751 0.108541,0.199575 0.06302,0.06302 0.234588,0.07703 h 0.238089 l 0.234588,-0.07703 0.150556,-0.150557 0.07703,-0.234587 v -0.150557 l -0.07703,-0.234588 -0.06302,-0.06302 -0.147055,-0.07353 -0.283606,-0.007 -0.05252,-0.04552 -0.0105,-0.03501 0.02101,-0.07003 0.423658,-0.567212 z m 2.083281,-0.196073 h 0.364136 l 0.301113,0.09453 0.03501,0.02101 0.02451,0.02801 0.08753,0.182069 0.0105,0.04552 v 0.182068 l -0.0105,0.04201 -0.108541,0.206578 -0.175065,0.09453 0.08403,0.03852 0.199575,0.206577 0.09103,0.182068 0.0105,0.04552 v 0.269601 l -0.0105,0.04552 -0.09103,0.182068 -0.108541,0.115543 -0.03851,0.02451 -0.301113,0.09454 h -0.364136 l -0.301113,-0.09454 -0.03851,-0.02451 -0.108541,-0.115543 -0.09103,-0.182068 -0.0105,-0.04552 v -0.269601 l 0.0105,-0.04552 0.108541,-0.206577 0.182068,-0.182068 0.08403,-0.03852 -0.175065,-0.09453 -0.108541,-0.206578 -0.0105,-0.04201 v -0.182068 l 0.0105,-0.04552 0.08753,-0.182069 0.02451,-0.02801 0.03501,-0.02101 z m -0.203076,0.269601 -0.05952,0.122545 v 0.136552 l 0.06302,0.129548 0.143554,0.07353 0.238089,0.05952 0.238089,-0.05952 0.143554,-0.07353 0.06302,-0.129548 v -0.136552 l -0.05952,-0.122545 -0.220582,-0.07353 h -0.329124 z m 0.07703,0.822807 -0.154058,0.150557 -0.07353,0.147055 v 0.227585 l 0.07353,0.147055 0.06302,0.06302 0.234587,0.07703 h 0.329124 l 0.234587,-0.07703 0.06302,-0.06302 0.07353,-0.147055 V 91.254612 L 96.154636,91.107557 96.000578,90.957 95.692463,90.858964 Z m 1.477553,-0.360634 0.0105,-0.03501 0.02101,-0.03151 0.03151,-0.02451 0.03501,-0.007 0.03851,0.007 0.03151,0.02451 0.02101,0.03151 0.007,0.161061 0.13305,-0.122546 0.178567,-0.09103 0.04552,-0.0105 h 0.273102 l 0.04202,0.0105 0.21358,0.115543 0.01751,0.03151 0.09454,0.304614 v 0.906839 l -0.007,0.03852 -0.02101,0.03151 -0.03151,0.02101 -0.03851,0.007 -0.03501,-0.007 -0.03151,-0.02101 -0.02101,-0.03151 -0.0105,-0.03852 v -0.892834 l -0.07003,-0.217081 -0.126047,-0.06302 h -0.224084 l -0.147055,0.07353 -0.234588,0.234588 v 0.864823 l -0.007,0.03852 -0.02101,0.03151 -0.03151,0.02101 -0.03851,0.007 -0.03501,-0.007 -0.03151,-0.02101 -0.02101,-0.03151 -0.0105,-0.03852 z m 1.726148,0 0.007,-0.03501 0.02101,-0.03151 0.03151,-0.02451 0.03852,-0.007 0.03851,0.007 0.03151,0.02451 0.02101,0.03151 0.007,0.161061 0.129549,-0.122546 0.182068,-0.09103 0.04552,-0.0105 h 0.269601 l 0.04552,0.0105 0.210079,0.115543 0.05952,0.154058 0.16106,-0.161061 0.206575,-0.10854 0.0455,-0.0105 h 0.2696 l 0.0455,0.0105 0.21008,0.115543 0.11204,0.304614 0.004,0.938351 -0.007,0.03852 -0.021,0.03151 -0.0315,0.02101 -0.0385,0.007 -0.0385,-0.007 -0.0315,-0.02101 -0.021,-0.03151 -0.007,-0.03852 v -0.892834 l -0.0735,-0.217081 -0.12255,-0.06302 h -0.22758 l -0.14706,0.07353 -0.231084,0.234588 v 0.864823 l -0.007,0.03852 -0.02101,0.03151 -0.03151,0.02101 -0.03851,0.007 -0.03851,-0.007 -0.03151,-0.02101 -0.02101,-0.03151 -0.007,-0.03852 v -0.892834 l -0.07353,-0.217081 -0.122546,-0.06302 h -0.227585 l -0.147055,0.07353 -0.231087,0.234588 v 0.864823 l -0.007,0.03852 -0.02101,0.03151 -0.03151,0.02101 -0.03851,0.007 -0.03852,-0.007 -0.03151,-0.02101 -0.02101,-0.03151 -0.007,-0.03852 z"
       id="text7"
       transform="scale(1.0025221,0.99748427)"
       aria-label="638nm" /><path
       style="font-size:3.50131px;line-height:1;font-family:'AVHershey Simplex';-inkscape-font-specification:'AVHershey Simplex, Normal';text-align:center;text-anchor:middle;stroke-width:0.2;stroke-linecap:round"
       d="m 95.510017,103.51227 0.02808,-0.0279 0.0351,-0.014 0.03861,0.004 0.0351,0.014 0.02457,0.0279 0.01755,0.0524 v 1.16999 l 0.393136,0.007 0.03159,0.0209 0.02106,0.0314 0.007,0.0384 -0.007,0.0349 -0.02106,0.0314 -0.03159,0.0244 -0.393136,0.007 v 0.53435 l -0.007,0.0384 -0.02106,0.0314 -0.0351,0.0209 -0.0351,0.007 -0.03861,-0.007 -0.03159,-0.0209 -0.02106,-0.0314 -0.007,-0.57277 h -0.810842 l -0.06669,-0.0244 -0.02106,-0.0314 -0.007,-0.0663 0.01405,-0.0349 z m -0.638845,1.22587 h 0.621294 V 103.872 Z m 2.716849,-1.26778 0.0351,0.007 0.03159,0.021 0.02106,0.0314 0.01053,0.0384 -0.01053,0.0384 -0.02106,0.0314 -0.03159,0.021 -0.0351,0.007 h -0.821373 l -0.05967,0.51339 0.2422,-0.0768 0.305383,0.007 0.270281,0.0908 0.03861,0.0209 0.182527,0.18161 0.02457,0.0384 0.09127,0.27241 v 0.24099 l -0.09127,0.27242 -0.02457,0.0384 -0.182527,0.18162 -0.03861,0.0244 -0.301873,0.0943 -0.305382,-0.004 -0.270281,-0.0908 -0.03861,-0.0244 -0.108815,-0.11525 -0.09126,-0.18161 -0.01053,-0.0384 0.0035,-0.0349 0.02106,-0.0349 0.02808,-0.0244 0.03861,-0.0105 0.03862,0.007 0.03159,0.0174 0.02457,0.0314 0.08424,0.16763 0.06318,0.0628 0.235179,0.0768 h 0.23869 l 0.235179,-0.0768 0.150936,-0.15017 0.07722,-0.234 v -0.15018 l -0.07722,-0.234 -0.150936,-0.14668 -0.235179,-0.0803 h -0.23869 l -0.235179,0.0803 -0.108815,0.0943 -0.03861,0.007 -0.04213,-0.0105 -0.03159,-0.0244 -0.01756,-0.0349 -0.0035,-0.0384 0.09126,-0.81376 0.03159,-0.0629 0.06318,-0.0245 z m 1.242589,0.004 0.214118,-0.004 0.301873,0.0943 0.05265,0.0384 0.196569,0.30734 0.09126,0.45402 v 0.28988 l -0.09126,0.47149 -0.01405,0.0349 -0.203588,0.29337 -0.301871,0.10827 h -0.24571 l -0.301873,-0.10827 -0.203588,-0.29337 -0.01404,-0.0349 -0.09126,-0.45403 v -0.30734 l 0.105304,-0.48895 0.182527,-0.27241 0.05265,-0.0384 z m -0.179018,0.26543 -0.150935,0.23051 -0.08424,0.42259 v 0.25146 l 0.08424,0.4226 0.150935,0.2305 0.228159,0.0733 h 0.147426 l 0.22816,-0.0733 0.150936,-0.2305 0.08424,-0.4226 v -0.25146 l -0.08424,-0.42259 -0.150936,-0.23051 -0.22816,-0.0733 h -0.147426 z m 1.474258,0.46101 0.0105,-0.0349 0.0211,-0.0314 0.0316,-0.0244 0.0351,-0.007 0.0386,0.007 0.0316,0.0244 0.0211,0.0314 0.007,0.16065 0.13339,-0.12224 0.17902,-0.0908 0.0456,-0.0105 h 0.27378 l 0.0421,0.0105 0.21412,0.11525 0.0175,0.0314 0.0947,0.30386 v 0.90455 l -0.007,0.0384 -0.0211,0.0314 -0.0316,0.0209 -0.0386,0.007 -0.0351,-0.007 -0.0316,-0.0209 -0.0211,-0.0314 -0.0105,-0.0384 v -0.89059 l -0.0702,-0.21653 -0.12637,-0.0628 h -0.22465 l -0.14742,0.0733 -0.23519,0.23399 v 0.86265 l -0.007,0.0384 -0.0211,0.0314 -0.0316,0.0209 -0.0386,0.007 -0.0351,-0.007 -0.0316,-0.0209 -0.0211,-0.0314 -0.0105,-0.0384 z m 1.73051,0 0.007,-0.0349 0.0211,-0.0314 0.0316,-0.0244 0.0386,-0.007 0.0386,0.007 0.0316,0.0244 0.021,0.0314 0.007,0.16065 0.12988,-0.12224 0.18253,-0.0908 0.0456,-0.0105 h 0.27028 l 0.0456,0.0105 0.21061,0.11525 0.0596,0.15367 0.16146,-0.16065 0.2071,-0.10827 0.0456,-0.0105 h 0.27028 l 0.0456,0.0105 0.21061,0.11525 0.11232,0.30385 0.004,0.93599 -0.007,0.0384 -0.0211,0.0314 -0.0316,0.0209 -0.0386,0.007 -0.0386,-0.007 -0.0316,-0.0209 -0.0211,-0.0314 -0.007,-0.0384 v -0.89059 l -0.0737,-0.21653 -0.12285,-0.0628 h -0.22817 l -0.14742,0.0733 -0.23167,0.23399 v 0.86265 l -0.007,0.0384 -0.0211,0.0314 -0.0316,0.0209 -0.0386,0.007 -0.0386,-0.007 -0.0316,-0.0209 -0.021,-0.0314 -0.007,-0.0384 v -0.89059 l -0.0737,-0.21653 -0.12285,-0.0628 h -0.22816 l -0.14743,0.0733 -0.23167,0.23399 v 0.86265 l -0.007,0.0384 -0.0211,0.0314 -0.0316,0.0209 -0.0386,0.007 -0.0386,-0.007 -0.0316,-0.0209 -0.0211,-0.0314 -0.007,-0.0384 z"
       id="text7-0"
       aria-label="450nm" /><path
       style="font-size:3.50131px;line-height:1;font-family:'AVHershey Simplex';-inkscape-font-specification:'AVHershey Simplex, Normal';text-align:center;text-anchor:middle;stroke-width:0.2;stroke-linecap:round"
       d="m 123.76553,103.47036 0.0351,0.007 0.0316,0.021 0.0211,0.0314 0.0105,0.0384 -0.0105,0.0384 -0.0211,0.0314 -0.0316,0.021 -0.0351,0.007 h -0.82136 l -0.0597,0.51339 0.2422,-0.0768 0.30538,0.007 0.27028,0.0908 0.0386,0.0209 0.18253,0.18161 0.0246,0.0384 0.0912,0.27241 v 0.24099 l -0.0912,0.27242 -0.0246,0.0384 -0.18253,0.18162 -0.0386,0.0244 -0.30186,0.0943 -0.30539,-0.004 -0.27028,-0.0908 -0.0386,-0.0244 -0.10881,-0.11525 -0.0912,-0.18161 -0.0105,-0.0384 0.004,-0.0349 0.0211,-0.0349 0.0281,-0.0244 0.0386,-0.0105 0.0386,0.007 0.0316,0.0174 0.0246,0.0314 0.0842,0.16763 0.0632,0.0628 0.23518,0.0768 h 0.23869 l 0.23518,-0.0768 0.15093,-0.15017 0.0772,-0.234 v -0.15018 l -0.0772,-0.234 -0.15093,-0.14668 -0.23518,-0.0803 h -0.23869 l -0.23518,0.0803 -0.10881,0.0943 -0.0386,0.007 -0.0421,-0.0105 -0.0316,-0.0244 -0.0175,-0.0349 -0.004,-0.0384 0.0912,-0.81376 0.0316,-0.0629 0.0632,-0.0245 z m 0.90562,0.58674 -0.0211,0.0314 -0.0316,0.0209 -0.0351,0.0105 -0.0386,-0.0105 -0.0316,-0.0209 -0.0211,-0.0314 -0.007,-0.0349 v -0.0908 l 0.0105,-0.0454 0.0877,-0.18162 0.1369,-0.13271 0.18252,-0.0908 0.0421,-0.0105 h 0.36506 l 0.0421,0.0105 0.18252,0.0908 0.11584,0.10826 0.10882,0.20607 0.0105,0.0454 v 0.17812 l -0.0105,0.0454 -0.0877,0.18161 -0.20007,0.29686 -0.74416,0.73692 h 1.0355 l 0.0386,0.007 0.0316,0.0209 0.0211,0.0314 0.007,0.0384 -0.007,0.0384 -0.0211,0.0314 -0.0316,0.0209 -0.0386,0.007 H 124.492 l -0.0386,-0.007 -0.0316,-0.0209 -0.0211,-0.0314 -0.007,-0.0384 0.007,-0.0384 0.0211,-0.0314 0.90209,-0.89758 0.17201,-0.25843 0.0772,-0.15368 v -0.13621 l -0.0702,-0.14668 -0.0702,-0.0663 -0.14742,-0.0734 h -0.31592 l -0.14742,0.0734 -0.0702,0.0663 -0.0702,0.14668 z m 2.15172,-0.58325 0.21411,-0.003 0.30188,0.0943 0.0526,0.0384 0.19656,0.30734 0.0912,0.45402 v 0.28988 l -0.0912,0.47149 -0.014,0.0349 -0.20358,0.29337 -0.30188,0.10827 h -0.2457 l -0.30187,-0.10827 -0.2036,-0.29337 -0.014,-0.0349 -0.0912,-0.45402 v -0.30735 l 0.1053,-0.48895 0.18253,-0.27241 0.0526,-0.0384 z m -0.17902,0.26543 -0.15093,0.23051 -0.0842,0.42259 v 0.25146 l 0.0842,0.4226 0.15093,0.2305 0.22816,0.0733 h 0.14743 l 0.22815,-0.0733 0.15094,-0.2305 0.0842,-0.4226 v -0.25146 l -0.0842,-0.42259 -0.15094,-0.23051 -0.22815,-0.0733 h -0.14743 z m 1.47425,0.46101 0.0105,-0.0349 0.0211,-0.0314 0.0316,-0.0244 0.0351,-0.007 0.0386,0.007 0.0316,0.0244 0.0211,0.0314 0.007,0.16066 0.13338,-0.12225 0.17901,-0.0908 0.0456,-0.0105 h 0.27379 l 0.0421,0.0105 0.21412,0.11525 0.0175,0.0314 0.0947,0.30386 v 0.90456 l -0.007,0.0384 -0.0211,0.0314 -0.0316,0.0209 -0.0386,0.007 -0.0351,-0.007 -0.0316,-0.0209 -0.0211,-0.0314 -0.0105,-0.0384 v -0.8906 l -0.0702,-0.21653 -0.12636,-0.0628 h -0.22465 l -0.14742,0.0733 -0.23518,0.23399 v 0.86266 l -0.007,0.0384 -0.0211,0.0314 -0.0316,0.0209 -0.0386,0.007 -0.0351,-0.007 -0.0316,-0.0209 -0.0211,-0.0314 -0.0105,-0.0384 z m 1.73051,0 0.007,-0.0349 0.0211,-0.0314 0.0316,-0.0244 0.0386,-0.007 0.0386,0.007 0.0316,0.0244 0.0211,0.0314 0.007,0.16066 0.12987,-0.12225 0.18253,-0.0908 0.0456,-0.0105 h 0.27028 l 0.0456,0.0105 0.21061,0.11525 0.0597,0.15367 0.16146,-0.16065 0.2071,-0.10827 0.0456,-0.0105 h 0.27028 l 0.0456,0.0105 0.21061,0.11525 0.11233,0.30386 0.004,0.93599 -0.007,0.0384 -0.021,0.0314 -0.0316,0.0209 -0.0386,0.007 -0.0386,-0.007 -0.0316,-0.0209 -0.0211,-0.0314 -0.007,-0.0384 v -0.8906 l -0.0737,-0.21653 -0.12285,-0.0628 h -0.22817 l -0.14742,0.0733 -0.23167,0.23399 v 0.86266 l -0.007,0.0384 -0.0211,0.0314 -0.0316,0.0209 -0.0386,0.007 -0.0386,-0.007 -0.0316,-0.0209 -0.0211,-0.0314 -0.007,-0.0384 v -0.8906 l -0.0737,-0.21653 -0.12286,-0.0628 h -0.22815 l -0.14743,0.0733 -0.23167,0.23399 v 0.86266 l -0.007,0.0384 -0.0211,0.0314 -0.0316,0.0209 -0.0386,0.007 -0.0386,-0.007 -0.0316,-0.0209 -0.021,-0.0314 -0.007,-0.0384 z"
       id="text7-0-1"
       aria-label="520nm" /><path
       style="font-size:5.25195px;line-height:1;font-family:'AVHershey Simplex';-inkscape-font-specification:'AVHershey Simplex, Normal';text-align:center;text-anchor:middle;fill:#040404;stroke-width:0.2;stroke-linecap:round"
       d="m 139.325,88.000161 -0.0263,-0.04727 -0.005,-0.05777 0.0158,-0.05777 0.0368,-0.04202 0.0525,-0.02626 0.0578,-0.0053 0.0525,0.01576 0.0473,0.04202 0.97161,1.2132 0.97161,-1.2132 0.0473,-0.04202 0.0525,-0.01576 0.0578,0.0053 0.0525,0.02626 0.0368,0.04202 0.0157,0.05777 -0.005,0.05777 -0.0263,0.04727 -1.05564,1.323492 v 1.444286 l -0.0105,0.05777 -0.0315,0.04727 -0.0473,0.03151 -0.0578,0.0105 -0.0578,-0.0105 -0.0473,-0.03151 -0.0315,-0.04727 -0.0105,-0.05777 v -1.444286 z"
       id="text6-4-9-1"
       transform="scale(1.0025221,0.99748427)"
       aria-label="Y" /><path
       style="font-size:5.25195px;line-height:1;font-family:'AVHershey Simplex';-inkscape-font-specification:'AVHershey Simplex, Normal';text-align:center;text-anchor:middle;fill:#040404;stroke-width:0.2;stroke-linecap:round"
       d="m 135.67167,71.880317 -0.89808,-1.344499 -0.021,-0.05777 v -0.05252 l 0.021,-0.05777 0.042,-0.03676 0.0525,-0.02101 h 0.0578 l 0.0525,0.02101 0.042,0.03676 0.82981,1.249964 0.8298,-1.249964 0.042,-0.03676 0.0525,-0.02101 h 0.0578 l 0.0525,0.02101 0.042,0.03676 0.021,0.05777 v 0.05252 l -0.021,0.05777 -0.89809,1.344499 0.89809,1.344499 0.021,0.05777 v 0.05252 l -0.021,0.05777 -0.042,0.03676 -0.0525,0.02101 h -0.0578 l -0.0525,-0.02101 -0.042,-0.03676 -0.8298,-1.249964 -0.82981,1.249964 -0.042,0.03676 -0.0525,0.02101 h -0.0578 l -0.0525,-0.02101 -0.042,-0.03676 -0.021,-0.05777 v -0.05252 l 0.021,-0.05777 z"
       id="text6-4-9-1-9"
       transform="scale(1.0025221,0.99748427)"
       aria-label="X" /><g
       id="g10"
       style="stroke-width:1.00755987"
       transform="matrix(0.4975,0,0,0.495,67.526025,43.727232)"><g
         id="path3"><path
           style="color:#000000;fill:#000000;stroke-linecap:round;-inkscape-stroke:none"
           d="M 63.808027,87.088577 H 77.855372"
           id="path13" /><path
           style="color:#000000;fill:#000000;stroke-linecap:round;-inkscape-stroke:none"
           d="m 63.808594,86.583984 a 0.50377995,0.50377995 0 0 0 -0.503907,0.503907 0.50377995,0.50377995 0 0 0 0.503907,0.503906 h 14.046875 a 0.50377995,0.50377995 0 0 0 0.503906,-0.503906 0.50377995,0.50377995 0 0 0 -0.503906,-0.503907 z"
           id="path14" /></g><g
         id="path4"
         transform="matrix(1,0,0,1.357481,0,-31.40736)"
         style="stroke-width:0.864777"><path
           style="color:#000000;fill:#000000;stroke-width:0.864777;stroke-linecap:square;-inkscape-stroke:none"
           d="M 79.128163,105.40766 V 88.361368"
           id="path15" /><path
           style="color:#000000;fill:#000000;stroke-width:0.864777;stroke-linecap:square;-inkscape-stroke:none"
           d="m 78.625,87.857422 v 0.503906 17.046872 0.50391 h 1.007812 V 105.4082 88.361328 87.857422 Z"
           id="path16" /></g><g
         id="path5"><path
           style="color:#000000;fill:#000000;stroke-linecap:round;-inkscape-stroke:none"
           d="M 70.976201,87.088577 H 103.87153"
           id="path17" /><path
           style="color:#000000;fill:#000000;stroke-linecap:round;-inkscape-stroke:none"
           d="m 70.976562,86.583984 a 0.50377995,0.50377995 0 0 0 -0.503906,0.503907 0.50377995,0.50377995 0 0 0 0.503906,0.503906 h 32.894528 a 0.50377995,0.50377995 0 0 0 0.50391,-0.503906 0.50377995,0.50377995 0 0 0 -0.50391,-0.503907 z"
           id="path18" /></g><g
         id="path6"
         transform="matrix(1,0,0,1.357481,0,-31.40736)"
         style="stroke-width:0.864777"><path
           style="color:#000000;fill:#000000;stroke-width:0.864777;stroke-linecap:square;-inkscape-stroke:none"
           d="M 105.14433,105.40766 V 88.361363"
           id="path19" /><path
           style="color:#000000;fill:#000000;stroke-width:0.864777;stroke-linecap:square;-inkscape-stroke:none"
           d="m 104.64063,87.857422 v 0.503906 17.046872 0.50391 h 1.00781 V 105.4082 88.361328 87.857422 Z"
           id="path20" /></g><g
         id="path7"><path
           style="color:#000000;fill:#000000;-inkscape-stroke:none"
           d="m 103.87153,87.088577 38.28679,5e-6"
           id="path21" /><path
           style="color:#000000;fill:#000000;-inkscape-stroke:none"
           d="m 103.87109,86.583984 v 1.007813 h 38.28711 v -1.007813 z"
           id="path22" /></g><g
         id="path8"><path
           style="color:#000000;fill:#000000;stroke-linecap:square;-inkscape-stroke:none"
           d="M 142.15832,87.088582 140.77518,63.311829"
           id="path23" /><path
           style="color:#000000;fill:#000000;stroke-linecap:square;-inkscape-stroke:none"
           d="m 141.24805,62.779297 -1.00586,0.05859 0.0293,0.503906 1.38477,23.77539 0.0293,0.503907 1.00586,-0.05859 -0.0293,-0.503906 -1.38477,-23.775391 z"
           id="path24" /></g><g
         id="path8-6"><path
           style="color:#000000;fill:#000000;stroke-linecap:square;-inkscape-stroke:none"
           d="m 142.15832,87.088582 2.48966,-27.649555"
           id="path25" /><path
           style="color:#000000;fill:#000000;stroke-linecap:square;-inkscape-stroke:none"
           d="m 144.19141,58.892578 -0.0449,0.501953 -2.49023,27.648438 -0.0449,0.501953 1.0039,0.08984 0.0449,-0.501954 2.49023,-27.648437 0.0449,-0.501953 z"
           id="path26" /></g><g
         id="path9"><path
           style="color:#000000;fill:#040404;stroke-linecap:round;-inkscape-stroke:none"
           d="m 144.64798,59.439027 27.04186,-5.858854"
           id="path27" /><path
           style="color:#000000;fill:#000000;stroke-linecap:round;-inkscape-stroke:none"
           d="m 171.58398,53.087891 -27.04296,5.859375 a 0.50377995,0.50377995 0 0 0 -0.38477,0.597656 0.50377995,0.50377995 0 0 0 0.59766,0.386719 l 27.04296,-5.859375 a 0.50377995,0.50377995 0 0 0 0.38477,-0.59961 0.50377995,0.50377995 0 0 0 -0.59766,-0.384765 z"
           id="path28" /></g><g
         id="path9-5"><path
           style="color:#000000;fill:#040404;stroke-linecap:round;-inkscape-stroke:none"
           d="m 140.77518,63.311829 31.06921,5.897272"
           id="path29" /><path
           style="color:#000000;fill:#000000;stroke-linecap:round;-inkscape-stroke:none"
           d="m 140.86914,62.816406 a 0.50377995,0.50377995 0 0 0 -0.58984,0.402344 0.50377995,0.50377995 0 0 0 0.40234,0.587891 L 171.75,69.703125 a 0.50377995,0.50377995 0 0 0 0.58984,-0.400391 0.50377995,0.50377995 0 0 0 -0.40234,-0.58789 z"
           id="path30" /></g><path
         style="color:#000000;fill:#000000;stroke-linecap:square;-inkscape-stroke:none"
         d="m 173.47852,52.873047 c -4.69054,0 -8.50391,3.81337 -8.50391,8.503906 0,4.690536 3.81337,8.503906 8.50391,8.503906 4.69053,0 8.5039,-3.81337 8.5039,-8.503906 0,-4.690536 -3.81337,-8.503906 -8.5039,-8.503906 z m 0,1.007812 c 4.14601,0 7.49609,3.350083 7.49609,7.496094 0,4.146011 -3.35008,7.496094 -7.49609,7.496094 -4.14602,0 -7.4961,-3.350083 -7.4961,-7.496094 0,-4.146011 3.35008,-7.496094 7.4961,-7.496094 z"
         id="path10" /></g></g></svg>
