<?xml version="1.0" encoding="UTF-8" standalone="no"?>
<!-- Created with Inkscape (http://www.inkscape.org/) -->

<svg
   width="20mm"
   height="15mm"
   viewBox="0 0 20 15"
   version="1.1"
   id="svg1"
   xml:space="preserve"
   inkscape:version="1.3.2 (091e20e, 2023-11-25)"
   sodipodi:docname="graphics.svg"
   xmlns:inkscape="http://www.inkscape.org/namespaces/inkscape"
   xmlns:sodipodi="http://sodipodi.sourceforge.net/DTD/sodipodi-0.dtd"
   xmlns="http://www.w3.org/2000/svg"
   xmlns:svg="http://www.w3.org/2000/svg"><sodipodi:namedview
     id="namedview1"
     pagecolor="#ffffff"
     bordercolor="#000000"
     borderopacity="0.25"
     inkscape:showpageshadow="2"
     inkscape:pageopacity="0.0"
     inkscape:pagecheckerboard="0"
     inkscape:deskcolor="#d1d1d1"
     inkscape:document-units="mm"
     inkscape:zoom="13.108222"
     inkscape:cx="38.678014"
     inkscape:cy="23.572991"
     inkscape:window-width="1680"
     inkscape:window-height="939"
     inkscape:window-x="0"
     inkscape:window-y="25"
     inkscape:window-maximized="0"
     inkscape:current-layer="layer1"
     showguides="true" /><defs
     id="defs1"><rect
       x="3.1983463"
       y="41.450568"
       width="30.448258"
       height="15.242346"
       id="rect2" /><rect
       x="3.1983464"
       y="41.450569"
       width="30.448257"
       height="15.242346"
       id="rect2-3" /><rect
       x="3.1983464"
       y="41.450569"
       width="38.891891"
       height="6.9266455"
       id="rect2-7" /></defs><g
     inkscape:label="Layer 1"
     inkscape:groupmode="layer"
     id="layer1"><path
       d="m 14.95552,11.11002 q -0.321201,0 -0.414753,-0.202698 -0.134092,0.05925 -0.280659,0.05925 -0.196462,0 -0.3212,-0.08576 -0.124737,-0.08576 -0.124737,-0.21985 0,-0.106027 0.05301,-0.205817 0.05301,-0.09979 0.05301,-0.271304 0,-0.155921 -0.06704,-0.3134029 -0.06705,-0.157478 -0.135654,-0.3461434 -0.0686,-0.1886657 -0.0686,-0.4412588 0,-0.1403295 0.03119,-0.3149622 -0.237,-0.074842 -0.371092,-0.2510342 -0.134093,-0.1761917 -0.134093,-0.4131928 0,-0.1933433 0.09355,-0.385127 0.09355,-0.1917837 0.265067,-0.3477058 0.265067,-0.6517536 0.717239,-0.8388596 -0.05613,-0.1933433 -0.101348,-0.397601 -0.04522,-0.2042576 -0.04522,-0.4038375 0,-0.3305542 0.09199,-0.5800293 0.09199,-0.2494751 0.246357,-0.3882456 0.154361,-0.1387705 0.338349,-0.1387705 0.261949,0 0.452175,0.2978112 0.190224,0.2978106 0.190224,0.7967602 v 0.09979 q 0,0.049898 -0.0062,0.1029083 0.299371,-0.3773307 0.645517,-0.6096542 0.346147,-0.2323235 0.661109,-0.2323235 0.255711,0 0.422549,0.1793097 0.166834,0.1793104 0.166834,0.4568514 0,0.2993696 -0.199578,0.6080952 -0.199581,0.3087255 -0.514544,0.572233 -0.314961,0.263508 -0.664226,0.4381407 0.05301,0.1434482 0.06861,0.2588298 0.0156,0.1153823 0.0156,0.2525937 0.271305,0.068606 0.516102,0.2214086 0.244797,0.1528041 0.410073,0.3929234 0.130974,-0.053014 0.277543,-0.053014 0.371093,0 0.612771,0.2338825 0.24168,0.2338832 0.24168,0.5862666 0,0.3617392 -0.246357,0.5893841 -0.24636,0.2276479 -0.620572,0.2276479 -0.04054,0.196461 -0.09511,0.341468 -0.05457,0.145008 -0.116941,0.222968 -0.09667,0.118501 -0.266627,0.22141 -0.169955,0.102908 -0.375771,0.166836 -0.205818,0.06393 -0.411633,0.06393 -0.199581,0 -0.338352,-0.05457 -0.138771,-0.05457 -0.19802,-0.151244 -0.08732,0.134094 -0.191783,0.194903 -0.104468,0.06081 -0.26039,0.06081 z M 12.831863,8.3283732 12.725837,8.1911624 q 0.06237,-0.046776 0.183988,-0.1107046 0.121618,-0.063928 0.246356,-0.1138233 -0.1185,0 -0.218291,0.00935 -0.09979,0.00935 -0.162159,0.021827 l -0.03742,-0.168396 q 0.240119,-0.046776 0.477121,-0.046776 0.04366,0 0.08887,0.00311 0.04522,0.00311 0.08576,0.00935 l 0.01871,0.187106 q -0.159039,0.043661 -0.297811,0.1387705 -0.138769,0.095113 -0.2791,0.2073763 z m 1.153823,0.012475 q -0.06237,0 -0.113823,-0.046776 -0.05145,-0.046776 -0.06705,-0.1153822 l 0.05301,-0.00311 q -0.0062,0.1185009 -0.109145,0.1185009 -0.09355,0 -0.18087,-0.1060274 l 0.08108,-0.084198 q 0.03742,0.034302 0.08108,0.034302 0.07484,0 0.07484,-0.1060269 h 0.07796 q 0,0.1496849 0.09355,0.1496849 0.03742,0 0.0842,-0.028065 l 0.07484,0.1247376 q -0.06861,0.062369 -0.149684,0.062369 z M 13.826645,8.0913727 q -0.08108,-0.093553 -0.112263,-0.1450078 -0.03119,-0.051453 -0.03119,-0.1075859 0,-0.049892 0.04054,-0.049892 0.04366,0 0.07796,0.0421 0.0343,0.0421 0.05614,0.088875 0.109143,-0.090435 0.187105,-0.090435 0.04989,0 0.04989,0.046776 0,0.09979 -0.268185,0.2151719 z m 1.041558,0.4053966 Q 14.721636,8.3782691 14.57351,8.2769197 14.425386,8.1755704 14.263226,8.1287939 l 0.02806,-0.1465668 q 0.06237,-0.00624 0.121619,-0.00935 0.05925,-0.00311 0.118501,-0.00311 0.230763,0 0.433463,0.040539 l -0.03742,0.1871048 q -0.07796,-0.015596 -0.152804,-0.02651 -0.07484,-0.010914 -0.155921,-0.010914 l 0.01247,-0.037424 q 0.09667,0.049892 0.182429,0.1060263 0.08576,0.056135 0.173073,0.1185009 z m 0.03119,-0.6767009 q -0.0686,0 -0.118501,-0.070165 -0.04989,-0.070165 -0.04989,-0.169955 0,-0.096671 0.04989,-0.1652768 0.0499,-0.068606 0.118501,-0.068606 0.07172,0 0.118501,0.068606 0.04678,0.068606 0.04678,0.1652768 0,0.09979 -0.04678,0.169955 -0.04678,0.070165 -0.118501,0.070165 z m 0.05613,3.0404776 q 0.112263,0 0.1949,-0.04678 0.08264,-0.04678 0.135654,-0.155922 0.06549,-0.130975 0.107585,-0.24012 0.0421,-0.109145 0.166837,-0.19958 L 15.679,10.130823 q -0.08108,-0.1902239 -0.08108,-0.3430279 0,-0.243238 0.149684,-0.4396994 0.149686,-0.1964619 0.433464,-0.2370012 l 0.04366,0.2432379 q -0.193343,0.021827 -0.290013,0.146566 -0.09667,0.1247377 -0.09667,0.3243177 0,0.09355 0.02183,0.1964619 0.02183,0.102907 0.06237,0.212054 -0.180868,0.102909 -0.265067,0.194902 -0.0842,0.09199 -0.0842,0.207376 0,0.06861 0.07796,0.121619 0.07796,0.05301 0.293133,0.05301 0.155921,0 0.327436,-0.0499 0.171512,-0.04989 0.316521,-0.132533 0.145007,-0.08264 0.216731,-0.17931 0.04054,-0.05301 0.09667,-0.204258 0.05614,-0.151244 0.106028,-0.4786809 0.05301,0.01559 0.104468,0.02183 0.05145,0.0062 0.101349,0.0062 0.274423,0 0.444377,-0.157481 0.169955,-0.1574809 0.169955,-0.4100747 0,-0.2494744 -0.169955,-0.4100742 -0.169954,-0.1605998 -0.435021,-0.1605998 -0.09356,0 -0.18399,0.021827 0.08108,0.2214092 0.116943,0.4085153 0.03586,0.187106 0.03586,0.3336728 h -0.218289 q 0,-0.1652774 -0.05301,-0.3555021 -0.05301,-0.190176 -0.152802,-0.389756 -0.0842,-0.1683954 -0.244799,-0.3102846 -0.160599,-0.1418885 -0.35862,-0.2276458 -0.19802,-0.085757 -0.394481,-0.085757 0,-0.2338826 -0.02963,-0.4443774 Q 15.710192,7.3959553 15.619752,7.199494 15.84428,7.143365 16.093755,6.9858811 16.343229,6.8284 16.56464,6.6132274 q 0.221408,-0.2151719 0.360178,-0.450614 0.138771,-0.2354422 0.138771,-0.4474955 0,-0.1746327 -0.09511,-0.2806597 -0.09511,-0.1060269 -0.244797,-0.1060269 -0.15904,0 -0.361739,0.09979 -0.202699,0.09979 -0.417869,0.291574 Q 15.7289,5.9115792 15.526202,6.1875606 15.323504,6.4635426 15.161345,6.815926 L 15.021011,6.775387 q 0.0686,-0.2245272 0.110704,-0.4895943 0.0421,-0.2650677 0.0421,-0.5675559 0,-0.3679754 -0.1185,-0.6065362 -0.118499,-0.2385602 -0.274423,-0.2385602 -0.168395,0 -0.299369,0.2447974 -0.130975,0.2447969 -0.130975,0.6127729 0,0.1746327 0.04678,0.3898046 0.04678,0.2151719 0.149684,0.5394894 -0.252594,0.059251 -0.453732,0.2619491 -0.20114,0.202698 -0.350825,0.5987399 -0.152803,0.1247375 -0.237001,0.2775403 -0.0842,0.1528035 -0.0842,0.305607 0,0.1964619 0.127856,0.3383504 0.127856,0.1418892 0.374212,0.1418892 0.118501,0 0.249475,-0.034302 0.127856,0.049892 0.26195,0.071724 0.134091,0.021827 0.286895,0.021827 0.336791,0 0.642397,-0.183988 l 0.112265,0.1933433 q -0.355502,0.2089352 -0.754662,0.2089352 -0.286895,0 -0.551963,-0.1122642 -0.0499,0.00935 -0.109145,0.017151 -0.05925,0.0078 -0.140332,0.0078 -0.01247,0.07796 -0.01714,0.1387705 -0.0047,0.060806 -0.0047,0.1699545 0,0.1621587 0.04678,0.3149622 0.04678,0.1528034 0.09043,0.271304 0.04366,0.115382 0.08576,0.251034 0.0421,0.1356529 0.0421,0.2728639 0,0.134093 -0.05145,0.252594 -0.05145,0.1185 -0.05145,0.171514 0,0.04366 0.05145,0.07172 0.05145,0.02806 0.148127,0.02806 0.08732,0 0.146566,-0.05457 0.05925,-0.05457 0.126296,-0.190224 0.06705,-0.135653 0.169955,-0.378891 l 0.17775,0.07484 q -0.07796,0.162158 -0.123181,0.291573 -0.04522,0.129415 -0.04522,0.23856 0,0.0842 0.06237,0.123179 0.06237,0.03898 0.180869,0.03898 z M 15.76008,6.80034 q -0.10291,0 -0.10291,-0.090435 0,-0.096672 0.10135,-0.2541528 0.101349,-0.1574811 0.249475,-0.3180802 0.148127,-0.1605998 0.293133,-0.2713044 0.145008,-0.1107046 0.232324,-0.1107046 0.102908,0 0.102908,0.090435 0,0.096672 -0.101348,0.2541528 Q 16.433661,6.2577313 16.285537,6.418331 16.137411,6.5789308 15.992403,6.6896354 15.847395,6.80034 15.76008,6.80034 Z"
       id="path1"
       style="stroke-width:0.264583" /><path
       d="m 4.4959641,11.318652 q 0.250751,0 0.423141,-0.09973 0.17239,-0.09973 0.17239,-0.279244 0,-0.116828 -0.01994,-0.190914 -0.01994,-0.07408 -0.01994,-0.15102 V 9.9024821 q 0,-0.108279 0.0171,-0.149596 0.0171,-0.04132 0.06269,-0.04132 0.04274,0 0.06269,0.0399 0.01994,0.0399 0.01994,0.131074 v 0.6753169 q 0,0.310589 0.156719,0.461609 0.156719,0.15102 0.481555,0.15102 0.239352,0 0.378974,-0.101155 0.139623,-0.101156 0.139623,-0.277821 0,-0.09118 -0.04416,-0.17239 -0.04416,-0.08121 -0.08834,-0.142473 -0.04416,-0.06126 -0.04416,-0.0983 V 9.6745281 q 0.09118,-0.1994595 0.149595,-0.4644573 0.05842,-0.2649972 0.05842,-0.4815541 0,-0.1396225 -0.02422,-0.2664221 -0.02422,-0.1267998 -0.06981,-0.2151327 l -0.205161,0.10258 q 0.0342,0.062689 0.05272,0.1624179 0.01852,0.09973 0.01852,0.2165569 0,0.2165569 -0.05984,0.467307 -0.05984,0.2507501 -0.148169,0.4274154 v 0.7551019 q 0,0.07694 0.04416,0.146745 0.04416,0.06982 0.08834,0.133924 0.04416,0.06412 0.04416,0.132498 0,0.151022 -0.290643,0.151022 -0.227954,0 -0.319136,-0.08548 -0.09118,-0.08548 -0.09118,-0.299191 V 9.8825421 q 0,-0.188063 -0.08264,-0.2934929 -0.08263,-0.1054284 -0.219408,-0.1054284 -0.148169,0 -0.232228,0.115402 -0.08406,0.1154023 -0.08406,0.3034653 v 0.6952629 q 0,0.08834 0.01994,0.156719 0.01994,0.06838 0.01994,0.185214 0,0.05984 -0.102579,0.105429 -0.102581,0.04559 -0.264998,0.04559 -0.113978,0 -0.216558,-0.04559 -0.102579,-0.04559 -0.102579,-0.125375 0,-0.09403 0.04132,-0.257875 0.04132,-0.163842 0.01,-0.334809 L 4.1027731,9.6773791 Q 3.9261081,9.6431791 3.7551431,9.576225 3.5841761,9.509264 3.3533721,9.3781891 v 0.6753159 q 0,0.07978 0.07266,0.159569 0.07266,0.07978 0.07266,0.165268 0,0.05129 -0.05842,0.08834 -0.05841,0.03704 -0.152445,0.03704 -0.202309,0 -0.327685,-0.125374 -0.1253756,-0.125376 -0.1253756,-0.324837 0,-0.0399 0.00565,-0.1581439 0.00565,-0.118252 0.011399,-0.246476 0.00565,-0.1282246 0.00565,-0.1909129 0,-0.059841 -0.00716,-0.1823632 -0.00716,-0.1225255 -0.021376,-0.2621479 -0.014244,-0.1396225 -0.034187,-0.2479009 -0.1681167,0 -0.3291096,-0.049864 Q 2.3046414,8.6658333 2.2006363,8.5860484 2.0966332,8.5062636 2.0966332,8.420781 q 0,-0.059841 0.042741,-0.059841 0.048441,0 0.1666923,0.054137 0.1182508,0.054137 0.2293787,0.054137 0.1225259,0 0.2208315,-0.079784 0.098304,-0.079786 0.1638416,-0.1937631 0.088337,-0.1567188 0.1966118,-0.2564487 0.108278,-0.099731 0.256448,-0.1552944 0.14817,-0.055561 0.361878,-0.078359 l -0.0228,-0.193761 q -0.290642,0.039893 -0.473006,0.1253748 -0.182364,0.085483 -0.289217,0.1880627 -0.1068536,0.10258 -0.1723907,0.1994606 -0.065539,0.09688 -0.1225259,0.1581438 -0.056995,0.061265 -0.142472,0.061265 -0.096881,0 -0.1795137,-0.039893 -0.082628,-0.039893 -0.1595686,-0.078359 -0.076928,-0.03847 -0.15387,-0.03847 -0.085482,0 -0.1310731,0.054137 -0.045586,0.054137 -0.045586,0.1624172 0,0.2592986 0.2023106,0.438813 0.2023087,0.1795143 0.5385422,0.2279547 0.017098,0.094031 0.031342,0.2065839 0.014244,0.1125528 0.014244,0.2806694 0,0.1510202 -0.011399,0.3305342 -0.011399,0.1795157 -0.011399,0.2649989 0,0.196611 0.088327,0.35048 0.088337,0.15387 0.2422022,0.240778 0.153869,0.0869 0.35048,0.0869 0.185213,0 0.307739,-0.08121 0.122525,-0.08121 0.122525,-0.232229 0,-0.09118 -0.06839,-0.200885 -0.06839,-0.109705 -0.06839,-0.163843 V 9.7400561 q 0.148171,0.08264 0.327686,0.128225 l 0.09688,0.5043509 q 0.0228,0.122525 -0.0171,0.282094 -0.0399,0.159568 -0.0399,0.264999 0,0.159567 0.169541,0.279244 0.169541,0.119676 0.37755,0.119676 z m 1.390524,-0.30489 0.142472,-0.01424 q 0.0086,-0.04274 0.0086,-0.09973 0,-0.08264 -0.01994,-0.15957 l -0.139622,0.0285 q 0.0171,0.07124 0.0171,0.136775 0,0.05699 -0.0086,0.108278 z m -0.14817,0 q 0.0285,-0.07408 0.0285,-0.159569 0,-0.0228 -0.0014,-0.0456 -0.0014,-0.0228 -0.0042,-0.04559 l -0.139622,0.01425 q 0.0029,0.01994 0.0029,0.03704 v 0.0342 q 0,0.07978 -0.02849,0.151022 z m -1.139775,0.133923 0.142472,-0.01424 -0.0228,-0.30489 -0.142471,0.01425 z m -0.168116,0 0.02279,-0.304889 -0.142472,-0.01425 -0.02279,0.30489 z m 0.692413,-1.9490145 q 0.202309,0 0.340506,-0.1510202 0.138198,-0.1510201 0.152445,-0.3704263 h -0.963108 q 0.01994,0.2365025 0.149595,0.3789749 0.12965,0.1424716 0.320562,0.1424716 z m -1.7638,1.3135905 0.139622,-0.01425 q 0.0029,-0.0228 0.0056,-0.04844 0.0029,-0.02564 0.0029,-0.04844 0,-0.08264 -0.0285,-0.165267 l -0.142471,0.03419 q 0.03134,0.08548 0.03134,0.156719 0,0.0342 -0.0086,0.08548 z m -0.259299,0.02564 0.136774,-0.01425 q 0.0029,-0.0228 0.0056,-0.04986 0.0029,-0.02706 0.0029,-0.04702 0,-0.07124 -0.03134,-0.165267 l -0.136774,0.0342 q 0.03134,0.08548 0.03134,0.156719 0,0.03419 -0.0086,0.08548 z m 3.755555,-3.0374955 q 0.418867,0 0.418867,-1.3249868 0,-0.1538694 -0.112554,-0.2877934 -0.112552,-0.1339232 -0.299189,-0.2165568 -0.186639,-0.082634 -0.408895,-0.082634 -0.182363,0 -0.280668,0.054137 -0.0983,0.054137 -0.132499,0.1424717 0.07408,0.065538 0.122524,0.2137076 0.04844,0.1481703 0.08548,0.3846734 0.07978,0.5242959 0.245051,0.8206372 0.165267,0.2963412 0.361879,0.2963412 z m -1.530147,0.7608011 q 0.20231,0 0.378976,-0.2735458 l -0.119677,-0.076936 q -0.136773,0.2080091 -0.259299,0.2080091 -0.05984,0 -0.0983,-0.056986 -0.03846,-0.056992 -0.03846,-0.1652674 h -0.153869 q 0,0.1082786 -0.03846,0.1652674 -0.03846,0.056986 -0.0983,0.056986 -0.122526,0 -0.259298,-0.2080091 l -0.119676,0.076936 q 0.176664,0.2735458 0.378974,0.2735458 0.122526,0 0.213708,-0.1139777 0.09118,0.1139777 0.213709,0.1139777 z m -1.239503,0.9118186 q 0.06839,0 0.116826,-0.04844 0.04844,-0.04844 0.04844,-0.1168269 0,-0.068386 -0.04844,-0.1168262 -0.04844,-0.04844 -0.116826,-0.04844 -0.06839,0 -0.116827,0.04844 -0.04844,0.04844 -0.04844,0.1168262 0,0.068387 0.04844,0.1168269 0.04844,0.04844 0.116827,0.04844 z m 1.746703,-1.6840155 q 0.07978,0 0.136773,-0.066961 0.05699,-0.066961 0.05699,-0.1638422 0,-0.096881 -0.05699,-0.1638429 -0.057,-0.066961 -0.136773,-0.066961 -0.07978,0 -0.136773,0.066961 -0.05699,0.066961 -0.05699,0.1638429 0,0.09688 0.05699,0.1638422 0.057,0.066961 0.136773,0.066961 z m -0.720907,0.4587586 q 0.14817,0 0.240778,-0.056986 0.0926,-0.056986 0.0926,-0.1538695 0,-0.094031 -0.0926,-0.1510202 -0.09261,-0.056992 -0.240778,-0.056992 -0.151021,0 -0.242202,0.056992 -0.09118,0.056986 -0.09118,0.1510202 0,0.09688 0.09118,0.1538695 0.09118,0.056986 0.242202,0.056986 z m 0.0285,0.9118193 q 0.344782,0 0.641123,-0.1438967 0.296341,-0.1438961 0.517172,-0.4046196 0.220832,-0.2607231 0.343357,-0.6083538 0.122526,-0.3476309 0.122526,-0.7551005 0,-0.7408527 -0.398922,-1.1483217 -0.39892,-0.407469 -1.128375,-0.407469 -0.510049,0 -0.889023,0.2008849 -0.378976,0.2008849 -0.589834,0.5641877 -0.210857,0.3633035 -0.210857,0.8477069 0,0.3932219 0.121101,0.7308799 0.121101,0.3376582 0.337658,0.5898332 0.216556,0.2521745 0.505774,0.3932219 0.289218,0.1410468 0.6283,0.1410468 z m 0,-0.2279546 q -0.387523,0 -0.695262,-0.2137076 -0.307741,-0.2137076 -0.488681,-0.5827098 -0.180938,-0.3690013 -0.180938,-0.8306098 0,-0.4217159 0.179514,-0.7323043 0.179514,-0.3105882 0.507199,-0.4815548 0.327685,-0.1709658 0.775046,-0.1709658 0.635425,0 0.967383,0.3405074 0.33196,0.3405073 0.33196,0.9873287 0,0.4787054 -0.183789,0.8605294 -0.183789,0.3818243 -0.500075,0.6026554 -0.316288,0.2208312 -0.71236,0.2208312 z m -1.760949,0.045591 q 0.25075,0 0.427414,-0.1709664 0.176664,-0.1709659 0.176664,-0.4188667 -0.04274,-0.022795 -0.101154,-0.1111279 -0.05842,-0.088333 -0.10258,-0.1909119 -0.04416,-0.1025799 -0.04416,-0.1567188 -0.367576,0.031342 -0.571311,0.1966105 -0.203735,0.1652673 -0.203735,0.4302646 0,0.193762 0.112553,0.307739 0.112552,0.1139776 0.306315,0.1139776 z m 1.08563,-1.2736969 q 0.07978,0 0.136773,-0.066961 0.05699,-0.066962 0.05699,-0.163843 0,-0.09688 -0.05699,-0.1638423 -0.05699,-0.066961 -0.136773,-0.066961 -0.07978,0 -0.136773,0.066961 -0.05698,0.066961 -0.05698,0.1638423 0,0.09688 0.05698,0.163843 0.057,0.066961 0.136773,0.066961 z m -0.95456,-0.176665 q 0.208009,0 0.366152,-0.2137077 0.158143,-0.2137076 0.303465,-0.7066594 0.06838,-0.2308045 0.138197,-0.370427 0.06981,-0.1396218 0.155294,-0.1937613 -0.0399,-0.1510196 -0.203735,-0.2065841 -0.163841,-0.055561 -0.329109,-0.055561 -0.341932,0 -0.512898,0.1267998 -0.170966,0.1267997 -0.227955,0.369002 -0.05699,0.2422017 -0.05699,0.5898325 0,0.6610691 0.367578,0.6610691 z"
       id="path1-2"
       style="stroke-width:0.264582" /><path
       style="font-size:2.11667px;line-height:1.42;font-family:'AVHershey Simplex';-inkscape-font-specification:'AVHershey Simplex, Normal';stroke-width:2;stroke-linecap:round;stroke-linejoin:bevel;paint-order:markers stroke fill"
       d="m 1.448667,0.82616187 0.0127,-0.01905 0.01905,-0.0148167 0.021167,-0.004233 0.023283,0.004233 0.01905,0.0127 0.014817,0.01905 0.00423,0.0211667 -0.00423,0.0232834 -0.4381506,1.15146843 -0.014817,0.021167 -0.0381,0.016933 -0.0254,-0.00423 -0.01905,-0.014817 -0.0127,-0.01905 -0.43815065,-1.15146843 -0.004233,-0.0232834 0.004233,-0.0211667 0.0148167,-0.01905 0.01905,-0.0127 0.0232834,-0.004233 0.0211667,0.004233 0.01905,0.0148167 0.0127,0.01905 0.38311721,1.00541823 z m 0.270934,0.55033413 0.014817,-0.023283 0.1079502,-0.1100669 0.1270002,-0.065617 0.0254,-0.00635 h 0.1651003 l 0.0254,0.00635 0.1100668,0.055033 0.08255,0.08255 0.052917,0.1079502 0.00635,0.027517 -0.00423,0.1312335 -0.0127,0.021167 -0.01905,0.0127 -0.023283,0.00423 H 1.7809845 v 0.040217 l 0.046567,0.1418169 0.093133,0.093133 0.0889,0.04445 h 0.1354669 l 0.0889,-0.04445 0.1037168,-0.1037169 0.01905,-0.0127 0.021167,-0.00423 0.023283,0.00423 0.01905,0.0127 0.0127,0.021167 0.00423,0.021167 -0.00423,0.023283 -0.1227669,0.1291169 -0.1248835,0.065617 -0.0254,0.00635 H 1.9947681 l -0.0254,-0.00635 L 1.8423679,1.986097 1.7344177,1.8760301 1.719601,1.8527468 1.6645676,1.6876465 1.6624509,1.5606463 Z m 0.5990176,0.1248836 v -0.035983 l -0.042333,-0.0889 -0.042333,-0.042333 -0.0889,-0.04445 H 2.0095848 l -0.0889,0.04445 -0.093133,0.093133 -0.0254,0.074083 z m 1.1006687,-0.1291169 0.00423,0.023283 -0.00423,0.023283 -0.0127,0.01905 -0.01905,0.0127 -0.023283,0.00423 -0.021167,-0.00423 -0.1227668,-0.1164169 -0.0889,-0.04445 H 2.9959533 l -0.0889,0.04445 -0.093133,0.093133 -0.046567,0.1418169 v 0.091017 l 0.046567,0.1418169 0.093133,0.093133 0.0889,0.04445 h 0.1354668 l 0.0889,-0.04445 0.1037168,-0.1037169 0.01905,-0.0127 0.021167,-0.00423 0.023283,0.00423 0.01905,0.0127 0.0127,0.021167 0.00423,0.021167 -0.00423,0.023283 -0.1227669,0.1291169 -0.1248835,0.065617 -0.0254,0.00635 H 2.9811366 l -0.0254,-0.00635 L 2.8456697,1.9966803 2.7207862,1.8760301 2.7059695,1.8527468 2.6509361,1.6876465 V 1.5415963 l 0.055033,-0.1651003 0.014817,-0.023283 0.1079502,-0.1100669 0.1270001,-0.065617 0.0254,-0.00635 h 0.1651002 l 0.0254,0.00635 0.1248835,0.065617 z m 0.3259663,-0.52493413 0.00423,-0.0232834 0.0127,-0.01905 0.01905,-0.0127 0.023283,-0.004233 0.023283,0.004233 0.01905,0.0127 0.0127,0.01905 0.00423,0.0232834 V 1.1711791 H 4.024654 l 0.021167,0.00423 0.01905,0.014817 0.0127,0.01905 0.00635,0.021167 -0.00635,0.023283 -0.0127,0.01905 -0.01905,0.0127 -0.1820336,0.00423 v 0.480484 l 0.04445,0.1312336 0.074083,0.0381 h 0.097367 l 0.021167,0.00423 0.01905,0.0127 0.0127,0.01905 0.00635,0.023283 -0.00635,0.023283 -0.0127,0.01905 -0.01905,0.0127 -0.1312335,0.00423 -0.027517,-0.00635 -0.1100668,-0.055033 -0.016933,-0.014817 -0.0127,-0.01905 -0.05715,-0.1841503 V 1.2897126 l -0.1270002,-0.00423 -0.021167,-0.0127 -0.0127,-0.01905 -0.00423,-0.023283 0.00423,-0.021167 0.0127,-0.01905 0.021167,-0.014817 0.1270002,-0.00423 z M 4.6236722,1.1711791 h 0.1693336 l 0.0254,0.00635 0.1248835,0.065617 0.1100669,0.1100669 0.014817,0.023283 0.055033,0.1651003 0.00212,0.1291169 -0.05715,0.1820336 -0.014817,0.023283 -0.1100669,0.1100669 -0.1248835,0.065617 -0.0254,0.00635 H 4.6279055 l -0.0254,-0.00635 L 4.4755053,1.986097 4.3675551,1.8760301 4.3527384,1.8527468 4.297705,1.6876465 V 1.5415963 L 4.3527384,1.376496 4.3675551,1.3532127 4.4924386,1.2325625 Z m -0.06985,0.1629835 -0.093133,0.093133 -0.046567,0.1418169 v 0.091017 l 0.046567,0.1418169 0.093133,0.093133 0.0889,0.04445 h 0.1354669 l 0.0889,-0.04445 0.093134,-0.093133 0.046567,-0.1418169 V 1.569113 l -0.046567,-0.1418169 -0.093134,-0.093133 -0.0889,-0.04445 H 4.6427222 Z m 0.8360858,-0.1037168 0.00423,-0.021167 0.0127,-0.01905 0.021167,-0.014817 0.021167,-0.00423 0.023283,0.00423 0.01905,0.014817 0.0127,0.01905 0.00423,0.021167 v 0.0762 l 0.078317,-0.074083 0.1100668,-0.055033 0.027517,-0.00635 0.186267,0.00423 0.01905,0.014817 0.0127,0.01905 0.00635,0.021167 -0.00635,0.023283 -0.0127,0.01905 -0.01905,0.0127 -0.021167,0.00423 H 5.7370418 l -0.086784,0.04445 -0.093133,0.093133 -0.048683,0.1418169 v 0.429684 l -0.00423,0.023283 -0.0127,0.01905 -0.01905,0.0127 -0.023283,0.00423 -0.021167,-0.00423 -0.021167,-0.0127 -0.0127,-0.01905 -0.00423,-0.023283 z m 1.2340188,-0.38311723 0.00423,-0.0232834 0.0127,-0.01905 0.01905,-0.0127 0.023283,-0.004233 0.021167,0.004233 0.01905,0.0127 0.0127,0.01905 0.00635,0.0232834 V 1.9395302 h 0.5969009 l 0.023283,0.00423 0.01905,0.0127 0.0127,0.01905 0.00423,0.023283 -0.00423,0.023283 -0.0127,0.01905 -0.01905,0.0127 -0.023283,0.00423 H 6.6831935 l -0.023283,-0.00423 -0.01905,-0.0127 -0.0127,-0.01905 -0.00423,-0.023283 z m 1.5324673,0.40428393 0.00635,-0.042333 0.0127,-0.01905 0.01905,-0.014817 0.021167,-0.00423 0.023283,0.00423 0.01905,0.014817 0.0127,0.01905 0.00423,0.021167 V 1.998797 l -0.00423,0.023283 -0.0127,0.01905 -0.01905,0.0127 -0.023283,0.00423 -0.021167,-0.00423 -0.01905,-0.0127 -0.0127,-0.01905 -0.00635,-0.04445 -0.023283,0.01905 -0.1100668,0.055033 -0.0254,0.00635 H 7.8325435 l -0.0254,-0.00635 L 7.6970766,1.9966803 7.5721931,1.8760301 7.5573764,1.8527468 7.502343,1.6876465 V 1.5415963 l 0.055033,-0.1651003 0.014817,-0.023283 0.1079502,-0.1100669 0.1270002,-0.065617 0.0254,-0.00635 h 0.1651003 l 0.0254,0.00635 0.1248835,0.065617 z m -0.084667,0.08255 -0.0889,-0.04445 H 7.8473602 l -0.0889,0.04445 -0.093133,0.093133 -0.046567,0.1418169 v 0.091017 l 0.046567,0.1418169 0.093133,0.093133 0.0889,0.04445 h 0.1354669 l 0.0889,-0.04445 0.084667,-0.084667 V 1.4209461 Z m 1.1895697,0.05715 -0.00212,0.023283 -0.010583,0.01905 -0.01905,0.014817 -0.023283,0.00635 -0.021167,-0.00212 -0.021167,-0.0127 L 9.10678,1.3341626 8.9734298,1.2897126 H 8.8294963 l -0.1333502,0.04445 -0.029633,0.061384 0.03175,0.065617 0.084667,0.042333 0.2667004,0.052917 0.1397002,0.071967 0.065617,0.1248835 0.00635,0.080433 -0.00635,0.027517 -0.067733,0.1270002 -0.1841503,0.067734 -0.1841503,0.00212 -0.1820336,-0.05715 -0.021167,-0.0127 -0.06985,-0.1270002 -0.00423,-0.023283 0.00212,-0.023283 0.010583,-0.01905 0.01905,-0.014817 0.021167,-0.00635 0.023283,0.00423 0.021167,0.010583 0.05715,0.1058335 0.1333502,0.04445 H 8.9734298 L 9.10678,1.8950802 9.1427634,1.8209967 V 1.79348 l -0.0381,-0.080433 -0.084667,-0.042333 -0.2667005,-0.052917 -0.1397002,-0.06985 -0.067733,-0.1248835 -0.00635,-0.027517 0.00635,-0.0254 0.06985,-0.1291168 0.1841503,-0.065617 0.1841503,-0.00423 0.1820336,0.059267 0.021167,0.010583 0.014817,0.01905 z m 0.2667016,-0.014817 0.014817,-0.023283 0.1079502,-0.1100669 0.1270002,-0.065617 0.0254,-0.00635 h 0.1651002 l 0.0254,0.00635 0.1100671,0.055033 0.08255,0.08255 0.05292,0.1079502 0.0063,0.027517 -0.0042,0.1312335 -0.0127,0.021167 -0.01905,0.0127 -0.02328,0.00423 H 9.5893819 v 0.040217 l 0.046567,0.1418169 0.093133,0.093133 0.0889,0.04445 h 0.1354669 l 0.0889,-0.04445 0.103717,-0.1037169 0.01905,-0.0127 0.02117,-0.00423 0.02328,0.00423 0.01905,0.0127 0.0127,0.021167 0.0042,0.021167 -0.0042,0.023283 -0.122767,0.1291169 -0.1248831,0.065617 -0.0254,0.00635 H 9.8031656 l -0.0254,-0.00635 L 9.6507654,1.986097 9.5428152,1.8760301 9.5279985,1.8527468 9.4729651,1.6876465 9.4708484,1.5606463 Z m 0.5990175,0.1248836 v -0.035983 l -0.04233,-0.0889 -0.04233,-0.042333 -0.0889,-0.04445 H 9.8179823 l -0.0889,0.04445 -0.093133,0.093133 -0.0254,0.074083 z m 0.383118,-0.2709338 0.0042,-0.021167 0.0127,-0.01905 0.02117,-0.014817 0.02117,-0.00423 0.02328,0.00423 0.01905,0.014817 0.0127,0.01905 0.0042,0.021167 v 0.0762 l 0.07832,-0.074083 0.110067,-0.055033 0.02752,-0.00635 0.186267,0.00423 0.01905,0.014817 0.0127,0.01905 0.0063,0.021167 -0.0063,0.023283 -0.0127,0.01905 -0.01905,0.0127 -0.02117,0.00423 h -0.1524 l -0.08678,0.04445 -0.09313,0.093133 -0.04868,0.1418169 v 0.429684 l -0.0042,0.023283 -0.0127,0.01905 -0.01905,0.0127 -0.02328,0.00423 -0.02117,-0.00423 -0.02117,-0.0127 -0.0127,-0.01905 -0.0042,-0.023283 z m 1.238251,-0.4064006 0.0127,-0.01905 0.01905,-0.0127 0.02328,-0.004233 0.512234,0.002117 0.162984,0.0550334 0.02328,0.0148167 0.06562,0.0698501 0.05503,0.11006681 0.0064,0.027517 v 0.1629836 l -0.0064,0.027517 -0.06562,0.1248835 -0.05503,0.055033 -0.02328,0.014817 -0.182034,0.05715 H 11.862686 V 1.998797 l -0.0042,0.023283 -0.01482,0.01905 -0.01905,0.0127 -0.02117,0.00423 -0.02328,-0.00423 -0.01905,-0.0127 -0.0127,-0.01905 -0.0042,-0.023283 V 0.84732857 Z m 0.114301,0.5672675 h 0.423334 l 0.141817,-0.046567 0.0381,-0.0381 0.04445,-0.0889 V 1.0801623 l -0.04445,-0.0889002 -0.0381,-0.0381001 -0.141817,-0.0465667 h -0.423334 z m 1.030816,-0.1608669 0.0042,-0.021167 0.0127,-0.01905 0.02117,-0.014817 0.02117,-0.00423 0.02328,0.00423 0.01905,0.014817 0.0127,0.01905 0.0042,0.021167 v 0.0762 l 0.07832,-0.074083 0.110066,-0.055033 0.02752,-0.00635 0.186267,0.00423 0.01905,0.014817 0.0127,0.01905 0.0064,0.021167 -0.0064,0.023283 -0.0127,0.01905 -0.01905,0.0127 -0.02117,0.00423 h -0.1524 l -0.08678,0.04445 -0.09313,0.093133 -0.04868,0.1418169 v 0.429684 l -0.0042,0.023283 -0.0127,0.01905 -0.01905,0.0127 -0.02328,0.00423 -0.02117,-0.00423 -0.02117,-0.0127 -0.0127,-0.01905 -0.0042,-0.023283 z m 0.988485,-0.059267 h 0.169334 l 0.0254,0.00635 0.124883,0.065617 0.110067,0.1100669 0.01482,0.023283 0.05503,0.1651003 0.0021,0.1291169 -0.05715,0.1820336 -0.01482,0.023283 -0.110067,0.1100669 -0.124883,0.065617 -0.0254,0.00635 h -0.1651 l -0.0254,-0.00635 L 13.73382,1.986097 13.62587,1.8760301 13.611054,1.8527468 13.55602,1.6876465 V 1.5415963 l 0.05503,-0.1651003 0.01482,-0.023283 0.124884,-0.1206502 z m -0.06985,0.1629835 -0.09313,0.093133 -0.04657,0.1418169 v 0.091017 l 0.04657,0.1418169 0.09313,0.093133 0.0889,0.04445 h 0.135467 l 0.0889,-0.04445 0.09313,-0.093133 0.04657,-0.1418169 V 1.569113 l -0.04657,-0.1418169 -0.09313,-0.093133 -0.0889,-0.04445 h -0.135467 z m 0.897469,-0.5101174 0.0127,-0.01905 0.05503,-0.0550334 0.01905,-0.0127 0.02328,-0.004233 0.02328,0.004233 0.01905,0.0127 0.05503,0.0550334 0.0127,0.01905 0.0042,0.0232834 -0.0042,0.0232834 -0.0127,0.01905 -0.05503,0.0550334 -0.01905,0.0127 -0.02328,0.004233 -0.02328,-0.004233 -0.01905,-0.0127 -0.05503,-0.0550334 -0.0127,-0.01905 -0.0042,-0.0232834 z m 0.0508,0.4064006 0.0042,-0.021167 0.0127,-0.01905 0.01905,-0.014817 0.02328,-0.00423 0.02328,0.00423 0.01905,0.014817 0.0127,0.01905 0.0042,0.021167 -0.0042,0.9525015 -0.05292,0.1629836 -0.0127,0.021167 -0.01693,0.0127 -0.110067,0.055033 -0.02752,0.00635 h -0.110067 l -0.02117,-0.00423 -0.01905,-0.0127 -0.0127,-0.01905 -0.0063,-0.023283 0.0063,-0.021167 0.0127,-0.01905 0.01905,-0.014817 0.118534,-0.00423 0.07408,-0.035983 0.04445,-0.1333502 z m 0.442384,0.1460502 0.01482,-0.023283 0.10795,-0.1100669 0.127,-0.065617 0.0254,-0.00635 h 0.1651 l 0.0254,0.00635 0.110067,0.055033 0.08255,0.08255 0.05292,0.1079502 0.0064,0.027517 -0.0042,0.1312335 -0.0127,0.021167 -0.01905,0.0127 -0.02328,0.00423 h -0.596901 v 0.040217 l 0.04657,0.1418169 0.09313,0.093133 0.0889,0.04445 h 0.135466 l 0.0889,-0.04445 0.103716,-0.1037169 0.01905,-0.0127 0.02117,-0.00423 0.02328,0.00423 0.01905,0.0127 0.0127,0.021167 0.0042,0.021167 -0.0042,0.023283 -0.122767,0.1291169 -0.124884,0.065617 -0.0254,0.00635 h -0.1651 l -0.0254,-0.00635 -0.127,-0.065617 -0.10795,-0.1100669 -0.01482,-0.023283 -0.05503,-0.1651003 -0.0021,-0.1270002 z m 0.599017,0.1248836 v -0.035983 l -0.04233,-0.0889 -0.04233,-0.042333 -0.0889,-0.04445 h -0.135466 l -0.0889,0.04445 -0.09313,0.093133 -0.0254,0.074083 z m 1.100669,-0.1291169 0.0042,0.023283 -0.0042,0.023283 -0.0127,0.01905 -0.01905,0.0127 -0.02328,0.00423 -0.02117,-0.00423 -0.122767,-0.1164169 -0.0889,-0.04445 h -0.135467 l -0.0889,0.04445 -0.09313,0.093133 -0.04657,0.1418169 v 0.091017 l 0.04657,0.1418169 0.09313,0.093133 0.0889,0.04445 h 0.135467 l 0.0889,-0.04445 0.103717,-0.1037169 0.01905,-0.0127 0.02117,-0.00423 0.02328,0.00423 0.01905,0.0127 0.0127,0.021167 0.0042,0.021167 -0.0042,0.023283 -0.122767,0.1291169 -0.124883,0.065617 -0.0254,0.00635 h -0.1651 l -0.0254,-0.00635 -0.110067,-0.055033 -0.124884,-0.1206502 -0.01482,-0.023283 -0.05503,-0.1651003 V 1.5415963 l 0.05503,-0.1651003 0.01482,-0.023283 0.10795,-0.1100669 0.127001,-0.065617 0.0254,-0.00635 h 0.1651 l 0.0254,0.00635 0.124883,0.065617 z m 0.325967,-0.52493413 0.0042,-0.0232834 0.0127,-0.01905 0.01905,-0.0127 0.02328,-0.004233 0.02328,0.004233 0.01905,0.0127 0.0127,0.01905 0.0042,0.0232834 V 1.1711791 h 0.160867 l 0.02117,0.00423 0.01905,0.014817 0.0127,0.01905 0.0064,0.021167 -0.0064,0.023283 -0.0127,0.01905 -0.01905,0.0127 -0.182034,0.00423 v 0.480484 l 0.04445,0.1312336 0.07408,0.0381 h 0.09737 l 0.02117,0.00423 0.01905,0.0127 0.0127,0.01905 0.0063,0.023283 -0.0063,0.023283 -0.0127,0.01905 -0.01905,0.0127 -0.131234,0.00423 -0.02752,-0.00635 -0.110067,-0.055033 -0.01693,-0.014817 -0.0127,-0.01905 -0.05715,-0.1841503 V 1.2897126 l -0.127,-0.00423 -0.02117,-0.0127 -0.0127,-0.01905 -0.0042,-0.023283 0.0042,-0.021167 0.0127,-0.01905 0.02117,-0.014817 0.127,-0.00423 z m 0.878418,0.32385053 h 0.169333 l 0.0254,0.00635 0.124884,0.065617 0.110067,0.1100669 0.01482,0.023283 0.05503,0.1651003 0.0021,0.1291169 -0.05715,0.1820336 -0.01482,0.023283 -0.110067,0.1100669 -0.124884,0.065617 -0.0254,0.00635 h -0.1651 l -0.0254,-0.00635 -0.127,-0.065617 -0.10795,-0.1100669 -0.01482,-0.023283 -0.05503,-0.1651003 V 1.5415963 l 0.05503,-0.1651003 0.01482,-0.023283 0.124883,-0.1206502 z m -0.06985,0.1629835 -0.09313,0.093133 -0.04657,0.1418169 v 0.091017 l 0.04657,0.1418169 0.09313,0.093133 0.0889,0.04445 h 0.135467 l 0.0889,-0.04445 0.09313,-0.093133 0.04657,-0.1418169 V 1.569113 l -0.04657,-0.1418169 -0.09313,-0.093133 -0.0889,-0.04445 h -0.135467 z m 0.836086,-0.1037168 0.0042,-0.021167 0.0127,-0.01905 0.02117,-0.014817 0.02117,-0.00423 0.02328,0.00423 0.01905,0.014817 0.0127,0.01905 0.0042,0.021167 v 0.0762 l 0.07832,-0.074083 0.110067,-0.055033 0.02752,-0.00635 0.186267,0.00423 0.01905,0.014817 0.0127,0.01905 0.0063,0.021167 -0.0063,0.023283 -0.0127,0.01905 -0.01905,0.0127 -0.02117,0.00423 H 19.22023 l -0.08678,0.04445 -0.09313,0.093133 -0.04868,0.1418169 v 0.429684 l -0.0042,0.023283 -0.0127,0.01905 -0.01905,0.0127 -0.02328,0.00423 -0.02117,-0.00423 -0.02117,-0.0127 -0.0127,-0.01905 -0.0042,-0.023283 z"
       id="text1"
       aria-label="Vector Laser Projector" /><path
       d="m 9.3115763,7.0946574 c -0.096161,0 -0.1858936,0.018753 -0.2687174,0.056327 -0.082821,0.037574 -0.1547018,0.090027 -0.2165243,0.1570964 -0.061823,0.067069 -0.1103561,0.1445779 -0.144694,0.2330607 -0.034338,0.088483 -0.05116,0.183955 -0.05116,0.2857706 0,0.172117 0.047275,0.3489033 0.1426269,0.530717 C 8.8684583,8.5394431 9.016948,8.7334506 9.2185588,8.939506 9.420171,9.1455616 9.6807227,9.3711085 9.9999064,9.6159505 10.319089,9.3711079 10.579641,9.1455616 10.781254,8.939506 c 0.201611,-0.2060555 0.350101,-0.4000629 0.445451,-0.5818766 0.09535,-0.1818137 0.143144,-0.3586 0.143144,-0.530717 0,-0.1018156 -0.01734,-0.1972878 -0.05168,-0.2857706 -0.03434,-0.088482 -0.08236,-0.1659914 -0.144177,-0.2330607 -0.06182,-0.06707 -0.134217,-0.1195225 -0.217041,-0.1570964 -0.08282,-0.037575 -0.172556,-0.056327 -0.268718,-0.056327 -0.09778,0 -0.191875,0.018753 -0.283186,0.056327 -0.09131,0.037574 -0.172687,0.088947 -0.243396,0.1539958 -0.07071,0.065049 -0.124581,0.1389783 -0.1617476,0.2222086 C 9.9635351,7.443959 9.9097831,7.3700296 9.8386759,7.3049805 9.7675675,7.2399311 9.6865917,7.1885586 9.5952799,7.1509847 9.5039749,7.1134101 9.4093587,7.0946574 9.3115763,7.0946574 Z"
       style="stroke-width:0.264582"
       id="path3" /><path
       style="font-size:5.33333px;line-height:1;font-family:'AVHershey Simplex';-inkscape-font-specification:'AVHershey Simplex, Normal';text-align:center;text-anchor:middle;white-space:pre;stroke-width:7.55906;stroke-linecap:round;stroke-linejoin:bevel;paint-order:markers stroke fill"
       d="m 11.44952,42.608505 0.032,-0.048 0.048,-0.032 0.05867,-0.01067 h 1.242666 l 0.458667,0.144 0.05867,0.03733 0.165333,0.176 0.138667,0.277333 0.016,0.06933 v 0.272 l -0.016,0.06933 -0.138667,0.277333 -0.165333,0.176 -0.05333,0.032 0.05333,0.032 0.138667,0.138666 0.165333,0.314667 0.016,0.06933 v 0.410666 l -0.016,0.06933 -0.138667,0.277333 -0.165333,0.176 -0.05867,0.03733 -0.458667,0.144 h -1.242666 l -0.05867,-0.01067 -0.048,-0.032 -0.032,-0.048 -0.01067,-0.05867 v -2.901332 z m 0.288,1.290665 h 1.066666 l 0.357333,-0.117333 0.096,-0.096 0.112,-0.224 v -0.208 l -0.112,-0.223999 -0.096,-0.096 -0.357333,-0.117334 H 11.73752 Z m 1.066666,1.52 0.357333,-0.117334 0.096,-0.096 0.112,-0.224 V 44.63517 l -0.112,-0.224 -0.096,-0.096 -0.357333,-0.117333 H 11.73752 v 1.221333 z m 1.530661,-1.786666 0.01067,-0.05333 0.032,-0.048 0.05333,-0.03733 0.05333,-0.01067 0.05867,0.01067 0.048,0.03733 0.032,0.048 0.01067,0.05333 v 0.192 l 0.197333,-0.186667 0.277333,-0.138666 0.06933,-0.016 0.469333,0.01067 0.048,0.03733 0.032,0.048 0.016,0.05333 -0.016,0.05867 -0.032,0.048 -0.048,0.032 -0.05333,0.01067 h -0.383999 l -0.218667,0.112 -0.234666,0.234667 -0.122667,0.357333 v 1.082666 l -0.01067,0.05867 -0.032,0.048 -0.048,0.032 -0.05867,0.01067 -0.05333,-0.01067 -0.05333,-0.032 -0.032,-0.048 -0.01067,-0.05867 z m 2.490665,-0.149333 h 0.426666 l 0.064,0.016 0.314667,0.165333 0.277333,0.277333 0.03733,0.05867 0.138667,0.415999 0.0053,0.325334 -0.144,0.458666 -0.03733,0.05867 -0.277333,0.277333 -0.314667,0.165333 -0.064,0.016 h -0.415999 l -0.064,-0.016 -0.32,-0.165333 -0.272,-0.277333 -0.03733,-0.05867 -0.138667,-0.416 v -0.368 l 0.138667,-0.415999 0.03733,-0.05867 0.314666,-0.304 z m -0.176,0.410666 -0.234666,0.234667 -0.117334,0.357333 v 0.229333 l 0.117334,0.357333 0.234666,0.234667 0.224,0.112 h 0.341333 l 0.224,-0.112 0.234666,-0.234667 0.117334,-0.357333 v -0.229333 l -0.117334,-0.357333 -0.234666,-0.234667 -0.224,-0.112 h -0.341333 z m 2.800001,-0.410666 h 0.426667 l 0.064,0.016 0.314666,0.165333 0.277333,0.277333 0.03733,0.05867 0.138666,0.415999 0.0053,0.325334 -0.144,0.458666 -0.03733,0.05867 -0.277333,0.277333 -0.314666,0.165333 -0.064,0.016 h -0.416 l -0.064,-0.016 -0.32,-0.165333 -0.271999,-0.277333 -0.03733,-0.05867 -0.138666,-0.416 v -0.368 l 0.138666,-0.415999 0.03733,-0.05867 0.314666,-0.304 z m -0.175999,0.410666 -0.234667,0.234667 -0.117333,0.357333 v 0.229333 l 0.117333,0.357333 0.234667,0.234667 0.223999,0.112 h 0.341334 l 0.223999,-0.112 0.234667,-0.234667 0.117333,-0.357333 v -0.229333 l -0.117333,-0.357333 -0.234667,-0.234667 -0.223999,-0.112 h -0.341334 z m 2.106668,-1.226666 0.016,-0.05867 0.032,-0.048 0.048,-0.032 0.05333,-0.01067 0.05867,0.01067 0.048,0.032 0.032,0.048 0.01067,0.05867 v 1.989332 l 1.130666,-1.125332 0.048,-0.03733 0.05867,-0.01067 0.05333,0.01067 0.048,0.03733 0.032,0.048 0.016,0.05333 -0.016,0.05867 -0.032,0.048 -0.730666,0.730666 0.88,1.002666 0.02667,0.048 0.0053,0.05867 -0.01067,0.05333 -0.03733,0.048 -0.05333,0.032 -0.05333,0.0053 -0.05867,-0.016 -0.048,-0.03733 -0.858666,-0.981333 -0.399999,0.394666 -0.01067,0.549333 -0.032,0.048 -0.048,0.032 -0.05867,0.01067 -0.05333,-0.01067 -0.048,-0.032 -0.032,-0.048 -0.016,-0.05867 z m 2.352002,1.333333 0.03733,-0.05867 0.272,-0.277333 0.32,-0.165333 0.064,-0.016 h 0.415999 l 0.064,0.016 0.277333,0.138666 0.208,0.208 0.133334,0.272 0.016,0.06933 -0.01067,0.330667 -0.032,0.05333 -0.048,0.032 -0.05867,0.01067 H 23.88685 v 0.101333 l 0.117333,0.357333 0.234667,0.234667 0.224,0.112 h 0.341333 l 0.224,-0.112 0.261333,-0.261334 0.048,-0.032 0.05333,-0.01067 0.05867,0.01067 0.048,0.032 0.032,0.05333 0.01067,0.05333 -0.01067,0.05867 -0.309333,0.325333 -0.314667,0.165333 -0.064,0.016 h -0.415999 l -0.064,-0.016 -0.32,-0.165333 -0.272,-0.277333 -0.03733,-0.05867 -0.138667,-0.416 -0.0053,-0.32 z m 1.509332,0.314666 v -0.09067 l -0.106667,-0.224 -0.106666,-0.106667 -0.224,-0.112 H 24.46285 l -0.224,0.112 -0.234667,0.234667 -0.064,0.186666 z m -14.205328,4.367996 -0.0053,0.05333 -0.032,0.05333 -0.04267,0.03733 -0.05867,0.01067 -0.05867,-0.0053 -0.048,-0.02667 -0.165334,-0.304 -0.239999,-0.239999 -0.224,-0.112 H 9.6815221 l -0.2239999,0.112 -0.2453332,0.239999 -0.1173333,0.245334 -0.1279999,0.383999 v 0.64 l 0.1279999,0.384 0.1173333,0.245333 0.2453332,0.24 0.2239999,0.112 h 0.4799999 l 0.224,-0.112 0.239999,-0.24 0.165334,-0.304 0.048,-0.02667 0.05867,-0.0053 0.05867,0.01067 0.04267,0.03733 0.032,0.05333 0.0053,0.05333 -0.016,0.05867 -0.165333,0.314667 -0.277333,0.277333 -0.314667,0.165333 -0.064,0.016 H 9.6441887 l -0.064,-0.016 -0.2773332,-0.138666 -0.3466664,-0.341333 -0.144,-0.298667 -0.1439999,-0.458666 0.00533,-0.741333 0.1386665,-0.410667 0.144,-0.298666 0.3039998,-0.314667 0.3199998,-0.165333 0.064,-0.016 h 0.5546663 l 0.064,0.016 0.314667,0.165333 0.303999,0.314667 z m 0.666662,-0.682667 0.016,-0.05867 0.032,-0.048 0.048,-0.032 0.05333,-0.01067 0.05867,0.01067 0.048,0.032 0.032,0.048 0.01067,0.05867 v 1.157333 l 0.202666,-0.186667 0.272,-0.138666 0.06933,-0.016 h 0.416 l 0.064,0.016 0.277333,0.138666 0.048,0.03733 0.02667,0.048 0.144,0.463999 v 1.381333 l -0.01067,0.05867 -0.032,0.048 -0.048,0.032 -0.05867,0.01067 -0.05333,-0.01067 -0.048,-0.032 -0.032,-0.048 -0.016,-0.05867 v -1.359999 l -0.106666,-0.330667 -0.192,-0.096 H 12.58285 l -0.224,0.112 -0.357333,0.357333 v 1.317333 l -0.01067,0.05867 -0.032,0.048 -0.048,0.032 -0.05867,0.01067 -0.05333,-0.01067 -0.048,-0.032 -0.032,-0.048 -0.016,-0.05867 z m 4.144001,1.018666 0.016,-0.106666 0.032,-0.048 0.048,-0.03733 0.05333,-0.01067 0.05867,0.01067 0.048,0.03733 0.032,0.048 0.01067,0.05333 v 1.935999 l -0.01067,0.05867 -0.032,0.048 -0.048,0.032 -0.05867,0.01067 -0.05333,-0.01067 -0.048,-0.032 -0.032,-0.048 -0.016,-0.112 -0.05867,0.048 -0.277333,0.138666 -0.064,0.016 h -0.416 l -0.064,-0.016 -0.277333,-0.138666 -0.314666,-0.304 -0.03733,-0.05867 -0.138666,-0.416 v -0.367999 l 0.138666,-0.416 0.03733,-0.05867 0.271999,-0.277333 0.32,-0.165333 0.064,-0.016 h 0.416 l 0.064,0.016 0.314666,0.165333 z m -0.213334,0.208 -0.223999,-0.112 h -0.341334 l -0.223999,0.112 -0.234667,0.234667 -0.117333,0.357333 v 0.229333 l 0.117333,0.357333 0.234667,0.234667 0.223999,0.112 h 0.341334 l 0.223999,-0.112 0.213334,-0.213333 v -0.981333 z m 1.322669,-1.226666 0.01067,-0.05867 0.032,-0.048 0.048,-0.032 0.05867,-0.01067 0.05867,0.01067 0.048,0.032 0.032,0.048 0.01067,0.05867 v 2.901332 l -0.01067,0.05867 -0.032,0.048 -0.048,0.032 -0.05867,0.01067 -0.05867,-0.01067 -0.048,-0.032 -0.032,-0.048 -0.01067,-0.05867 z m 1.109334,0.965333 0.01067,-0.05333 0.032,-0.048 0.048,-0.03733 0.05867,-0.01067 0.05867,0.01067 0.048,0.03733 0.032,0.048 0.01067,0.245333 0.197333,-0.186667 0.277333,-0.138666 0.06933,-0.016 h 0.410666 l 0.06933,0.016 0.32,0.176 0.09067,0.234666 0.245333,-0.245333 0.314666,-0.165333 0.06933,-0.016 h 0.410666 l 0.06933,0.016 0.32,0.176 0.170667,0.464 0.0053,1.429332 -0.01067,0.05867 -0.032,0.048 -0.048,0.032 -0.05867,0.01067 -0.05867,-0.01067 -0.048,-0.032 -0.032,-0.048 -0.01067,-0.05867 v -1.359999 l -0.112,-0.330667 -0.186667,-0.096 h -0.346666 l -0.224,0.112 -0.352,0.357333 v 1.317333 l -0.01067,0.05867 -0.032,0.048 -0.048,0.032 -0.05867,0.01067 -0.05867,-0.01067 -0.048,-0.032 -0.032,-0.048 -0.01067,-0.05867 v -1.359999 l -0.112,-0.330667 -0.186667,-0.096 h -0.346666 l -0.224,0.112 -0.352,0.357333 v 1.317333 l -0.01067,0.05867 -0.032,0.048 -0.048,0.032 -0.05867,0.01067 -0.05867,-0.01067 -0.048,-0.032 -0.032,-0.048 -0.01067,-0.05867 z m 4.154661,0.368 0.03733,-0.05867 0.272,-0.277333 0.32,-0.165333 0.064,-0.016 h 0.415999 l 0.064,0.016 0.277333,0.138666 0.208,0.208 0.133334,0.272 0.016,0.06933 -0.01067,0.330667 -0.032,0.05333 -0.048,0.032 -0.05867,0.01067 h -1.503999 v 0.101333 l 0.117333,0.357333 0.234667,0.234667 0.224,0.112 h 0.341333 l 0.224,-0.112 0.261333,-0.261333 0.048,-0.032 0.05333,-0.01067 0.05867,0.01067 0.048,0.032 0.032,0.05333 0.01067,0.05333 -0.01067,0.05867 -0.309333,0.325333 -0.314667,0.165333 -0.064,0.016 h -0.415999 l -0.064,-0.016 -0.32,-0.165333 -0.272,-0.277333 -0.03733,-0.05867 -0.138667,-0.416 -0.0053,-0.319999 z m 1.509332,0.314666 v -0.09067 l -0.106667,-0.224 -0.106666,-0.106667 -0.224,-0.112 h -0.341333 l -0.224,0.112 -0.234667,0.234667 -0.064,0.186666 z m 0.965334,-0.682666 0.01067,-0.05333 0.032,-0.048 0.05333,-0.03733 0.05333,-0.01067 0.05867,0.01067 0.048,0.03733 0.032,0.048 0.01067,0.05333 v 0.192 l 0.197334,-0.186667 0.277333,-0.138666 0.06933,-0.016 0.469333,0.01067 0.048,0.03733 0.032,0.048 0.016,0.05333 -0.016,0.05867 -0.032,0.048 -0.048,0.032 -0.05333,0.01067 h -0.384 l -0.218667,0.112 -0.234666,0.234667 -0.122667,0.357333 v 1.082666 l -0.01067,0.05867 -0.032,0.048 -0.048,0.032 -0.05867,0.01067 -0.05333,-0.01067 -0.05333,-0.032 -0.032,-0.048 -0.01067,-0.05867 z m 3.47733,0.405333 -0.0053,0.05867 -0.02667,0.048 -0.048,0.03733 -0.05867,0.016 -0.05333,-0.0053 -0.05333,-0.032 -0.144,-0.266667 -0.336,-0.112 h -0.362667 l -0.335999,0.112 -0.07467,0.154667 0.08,0.165333 0.213333,0.106667 0.672,0.133333 0.351999,0.181333 0.165334,0.314667 0.016,0.202666 -0.016,0.06933 -0.170667,0.319999 -0.464,0.170667 -0.463999,0.0053 -0.458667,-0.144 -0.05333,-0.032 -0.176,-0.319999 -0.01067,-0.05867 0.0053,-0.05867 0.02667,-0.048 0.048,-0.03733 0.05333,-0.016 0.05867,0.01067 0.05333,0.02667 0.144,0.266667 0.335999,0.112 h 0.362667 l 0.336,-0.112 0.09067,-0.186667 v -0.06933 l -0.096,-0.202667 -0.213333,-0.106666 -0.672,-0.133333 -0.351999,-0.176 -0.170667,-0.314667 -0.016,-0.06933 0.016,-0.064 0.176,-0.325333 0.464,-0.165333 0.463999,-0.01067 0.458667,0.149333 0.05333,0.02667 0.03733,0.048 z"
       id="text2"
       transform="matrix(0.26458333,0,0,0.26458333,-0.31507531,0.57543581)"
       aria-label="Brooke Chalmers" /><path
       d="m 5.1192176,43.685837 v -1.018666 l 0.016,-0.05867 0.032,-0.048 0.048,-0.032 0.053333,-0.01067 0.058667,0.01067 0.048,0.032 0.032,0.048 0.010667,0.05867 v 2.901332 l -0.010667,0.05867 -0.032,0.048 -0.048,0.032 -0.058667,0.01067 -0.053333,-0.01067 -0.048,-0.032 -0.032,-0.048 -0.016,-0.112 -0.058667,0.048 -0.2773332,0.138667 -0.064,0.016 H 4.3032181 l -0.064,-0.016 -0.2773331,-0.138667 -0.3146665,-0.303999 -0.037333,-0.05867 -0.1386666,-0.416 v -0.368 l 0.1386666,-0.415999 0.037333,-0.05867 0.2719998,-0.277333 0.3199998,-0.165333 0.064,-0.016 h 0.4159997 l 0.064,0.016 0.3146665,0.165333 z m -0.2133332,0.208 -0.2239999,-0.112 H 4.3405514 l -0.2239999,0.112 -0.2346665,0.234667 -0.1173333,0.357333 v 0.229333 l 0.1173333,0.357333 0.2346665,0.234667 0.2239999,0.112 h 0.3413331 l 0.2239999,-0.112 0.2133332,-0.213334 v -0.981332 z m 1.3226689,0.106667 0.037333,-0.05867 0.2719998,-0.277333 0.3199998,-0.165333 0.064,-0.016 H 7.337886 l 0.064,0.016 0.2773331,0.138666 0.2079999,0.208 0.1333333,0.272 0.016,0.06933 -0.010667,0.330667 -0.032,0.05333 -0.048,0.032 -0.058667,0.01067 H 6.3832199 v 0.101333 l 0.1173333,0.357333 0.2346665,0.234667 0.2239999,0.112 h 0.3413331 l 0.2239999,-0.112 0.2613331,-0.261334 0.048,-0.032 0.053333,-0.01067 0.058667,0.01067 0.048,0.032 0.032,0.05333 0.010667,0.05333 -0.010667,0.05867 -0.3093331,0.325333 -0.3146665,0.165333 -0.064,0.016 H 6.9218863 l -0.064,-0.016 -0.3199998,-0.165333 -0.2719998,-0.277333 -0.037333,-0.05867 -0.1386665,-0.416 -0.00533,-0.32 z m 1.5093325,0.314666 v -0.09067 l -0.1066666,-0.224 -0.1066666,-0.106667 -0.2239999,-0.112 H 6.9592196 l -0.2239999,0.112 -0.2346665,0.234667 -0.064,0.186666 z m 2.6453332,-0.277333 -0.0053,0.05867 -0.02667,0.048 -0.048,0.03733 -0.05867,0.016 -0.05333,-0.0053 -0.05333,-0.032 -0.1439995,-0.266667 -0.3359998,-0.112 H 9.2952192 l -0.3359998,0.112 -0.074667,0.154667 0.08,0.165333 0.2133332,0.106666 0.6719996,0.133334 0.3519995,0.181333 0.165334,0.314666 0.016,0.202667 -0.016,0.06933 -0.170667,0.32 -0.4639997,0.170667 -0.4639997,0.0053 -0.4586664,-0.144 -0.053333,-0.032 -0.1759999,-0.32 -0.010667,-0.05867 0.00533,-0.05867 0.026667,-0.048 0.048,-0.03733 0.053333,-0.016 0.058667,0.01067 0.053333,0.02667 0.1439999,0.266667 0.3359998,0.112 h 0.3626665 l 0.3359998,-0.112 0.090667,-0.186667 v -0.06933 l -0.096,-0.202667 -0.2133332,-0.106666 -0.6719996,-0.133334 -0.3519998,-0.176 -0.1706665,-0.314666 -0.016,-0.06933 0.016,-0.064 0.1759999,-0.325333 0.4639997,-0.165334 0.4639997,-0.01067 0.4586667,0.149333 0.05333,0.02667 0.03733,0.048 z m 0.544002,-1.429332 0.032,-0.048 0.138666,-0.138667 0.048,-0.032 0.05867,-0.01067 0.05867,0.01067 0.048,0.032 0.138666,0.138667 0.032,0.048 0.01067,0.05867 -0.01067,0.05867 -0.032,0.048 -0.138666,0.138666 -0.048,0.032 -0.05867,0.01067 -0.05867,-0.01067 -0.048,-0.032 -0.138666,-0.138666 -0.032,-0.048 -0.01067,-0.05867 z m 0.128,1.023999 0.01067,-0.05333 0.032,-0.048 0.048,-0.03733 0.05867,-0.01067 0.05867,0.01067 0.048,0.03733 0.032,0.048 0.01067,0.05333 v 1.935999 l -0.01067,0.05867 -0.032,0.048 -0.048,0.032 -0.05867,0.01067 -0.05867,-0.01067 -0.048,-0.032 -0.032,-0.048 -0.01067,-0.05867 z m 2.629329,0.05333 0.016,-0.106666 0.032,-0.048 0.048,-0.03733 0.05333,-0.01067 0.05867,0.01067 0.048,0.03733 0.032,0.048 0.01067,0.05333 -0.0053,2.261332 -0.138666,0.410666 -0.03733,0.05867 -0.176,0.165333 -0.277333,0.138667 -0.064,0.016 h -0.415999 l -0.064,-0.016 -0.325334,-0.170667 -0.02667,-0.05333 -0.01067,-0.05867 0.016,-0.05333 0.03733,-0.048 0.048,-0.02667 0.05867,-0.01067 0.304,0.138666 h 0.341333 l 0.224,-0.112 0.096,-0.096 0.117333,-0.357333 v -0.304 l -0.05867,0.048 -0.277333,0.138667 -0.064,0.016 h -0.415999 l -0.064,-0.016 -0.277334,-0.138667 -0.314666,-0.303999 -0.03733,-0.05867 -0.138667,-0.416 v -0.368 l 0.138667,-0.415999 0.03733,-0.05867 0.272,-0.277333 0.32,-0.165333 0.064,-0.016 h 0.415999 l 0.064,0.016 0.314667,0.165333 z m -0.213333,0.208 -0.224,-0.112 h -0.341333 l -0.224,0.112 -0.234667,0.234667 -0.117333,0.357333 v 0.229333 l 0.117333,0.357333 0.234667,0.234667 0.224,0.112 h 0.341333 l 0.224,-0.112 0.213333,-0.213334 v -0.981332 z m 1.317336,-0.261333 0.016,-0.05333 0.032,-0.048 0.048,-0.03733 0.05333,-0.01067 0.05867,0.01067 0.048,0.03733 0.032,0.048 0.01067,0.245333 0.202666,-0.186667 0.272,-0.138666 0.06933,-0.016 h 0.415999 l 0.064,0.016 0.325333,0.176 0.02667,0.048 0.144,0.463999 v 1.381333 l -0.01067,0.05867 -0.032,0.048 -0.048,0.032 -0.05867,0.01067 -0.05333,-0.01067 -0.048,-0.032 -0.032,-0.048 -0.016,-0.05867 v -1.359999 l -0.106666,-0.330667 -0.192,-0.096 h -0.341333 l -0.224,0.112 -0.357333,0.357333 v 1.317333 l -0.01067,0.05867 -0.032,0.048 -0.048,0.032 -0.05867,0.01067 -0.05333,-0.01067 -0.048,-0.032 -0.032,-0.048 -0.016,-0.05867 z m 2.629334,0.368 0.03733,-0.05867 0.271999,-0.277333 0.32,-0.165333 0.064,-0.016 h 0.416 l 0.064,0.016 0.277333,0.138666 0.208,0.208 0.133333,0.272 0.016,0.06933 -0.01067,0.330667 -0.032,0.05333 -0.048,0.032 -0.05867,0.01067 h -1.503999 v 0.101333 l 0.117333,0.357333 0.234667,0.234667 0.223999,0.112 h 0.341334 l 0.223999,-0.112 0.261334,-0.261334 0.048,-0.032 0.05333,-0.01067 0.05867,0.01067 0.048,0.032 0.032,0.05333 0.01067,0.05333 -0.01067,0.05867 -0.309334,0.325333 -0.314666,0.165333 -0.064,0.016 h -0.416 l -0.064,-0.016 -0.32,-0.165333 -0.271999,-0.277333 -0.03733,-0.05867 -0.138666,-0.416 -0.0053,-0.32 z m 1.509333,0.314666 v -0.09067 l -0.106667,-0.224 -0.106667,-0.106667 -0.223999,-0.112 h -0.341334 l -0.223999,0.112 -0.234667,0.234667 -0.064,0.186666 z m 2.485333,-0.629333 v -1.018666 l 0.016,-0.05867 0.032,-0.048 0.048,-0.032 0.05333,-0.01067 0.05867,0.01067 0.048,0.032 0.032,0.048 0.01067,0.05867 v 2.901332 l -0.01067,0.05867 -0.032,0.048 -0.048,0.032 -0.05867,0.01067 -0.05333,-0.01067 -0.048,-0.032 -0.032,-0.048 -0.016,-0.112 -0.05867,0.048 -0.277333,0.138667 -0.064,0.016 h -0.416 l -0.064,-0.016 -0.277333,-0.138667 -0.314667,-0.303999 -0.03733,-0.05867 -0.138666,-0.416 v -0.368 l 0.138666,-0.415999 0.03733,-0.05867 0.272,-0.277333 0.32,-0.165333 0.064,-0.016 h 0.416 l 0.064,0.016 0.314666,0.165333 z m -0.213334,0.208 -0.224,-0.112 h -0.341333 l -0.224,0.112 -0.234666,0.234667 -0.117333,0.357333 v 0.229333 l 0.117333,0.357333 0.234666,0.234667 0.224,0.112 h 0.341333 l 0.224,-0.112 0.213334,-0.213334 v -0.981332 z m 2.912004,-0.48 -0.032,0.048 -0.048,0.032 -0.05333,0.016 -0.05867,-0.016 -0.048,-0.032 -0.032,-0.048 -0.01067,-0.05333 v -0.138667 l 0.016,-0.06933 0.133333,-0.277333 0.208,-0.202667 0.277333,-0.138666 0.064,-0.016 h 0.554667 l 0.064,0.016 0.277333,0.138666 0.176,0.165334 0.165333,0.314666 0.016,0.06933 v 0.272 l -0.016,0.06933 -0.133333,0.277333 -0.304,0.453333 -1.130666,1.125333 h 1.573332 l 0.05867,0.01067 0.048,0.032 0.032,0.048 0.01067,0.05867 -0.01067,0.05867 -0.032,0.048 -0.048,0.032 -0.05867,0.01067 h -1.930665 l -0.05867,-0.01067 -0.048,-0.032 -0.032,-0.048 -0.01067,-0.05867 0.01067,-0.05867 0.032,-0.048 1.370666,-1.370666 0.261333,-0.394666 0.117334,-0.234667 v -0.208 l -0.106667,-0.223999 -0.106667,-0.101334 -0.224,-0.112 h -0.479999 l -0.224,0.112 -0.106667,0.101334 -0.106666,0.223999 z m 3.269331,-0.890666 0.325333,-0.0053 0.458667,0.144 0.08,0.05867 0.298666,0.469334 0.138667,0.693332 v 0.442667 l -0.138667,0.719999 -0.02133,0.05333 -0.309333,0.447999 -0.458667,0.165334 h -0.373333 l -0.458666,-0.165334 -0.309333,-0.447999 -0.02133,-0.05333 -0.138666,-0.693333 V 43.88317 l 0.16,-0.746666 0.277333,-0.416 0.08,-0.05867 z m -0.272,0.405333 -0.229333,0.352 -0.128,0.645333 v 0.384 l 0.128,0.645333 0.229333,0.352 0.346667,0.112 h 0.224 l 0.346666,-0.112 0.229333,-0.352 0.128,-0.645333 v -0.384 l -0.128,-0.645333 -0.229333,-0.352 -0.346666,-0.112 h -0.224 z m 2.522663,0.485333 -0.032,0.048 -0.048,0.032 -0.05333,0.016 -0.05867,-0.016 -0.048,-0.032 -0.032,-0.048 -0.01067,-0.05333 v -0.138667 l 0.016,-0.06933 0.133333,-0.277333 0.208,-0.202667 0.277333,-0.138666 0.064,-0.016 h 0.554667 l 0.064,0.016 0.277334,0.138666 0.176,0.165334 0.165333,0.314666 0.016,0.06933 v 0.272 l -0.016,0.06933 -0.133333,0.277333 -0.304,0.453333 -1.130666,1.125333 h 1.573332 l 0.05867,0.01067 0.048,0.032 0.032,0.048 0.01067,0.05867 -0.01067,0.05867 -0.032,0.048 -0.048,0.032 -0.05867,0.01067 h -1.930665 l -0.05867,-0.01067 -0.048,-0.032 -0.032,-0.048 -0.01067,-0.05867 0.01067,-0.05867 0.032,-0.048 1.370666,-1.370666 0.261333,-0.394666 0.117333,-0.234667 v -0.208 l -0.106666,-0.223999 -0.106667,-0.101334 -0.224,-0.112 h -0.479999 l -0.224,0.112 -0.106667,0.101334 -0.106667,0.223999 z m 2.474668,0.496 0.138666,-0.719999 0.298667,-0.469334 0.07467,-0.05867 0.464,-0.144 0.325333,0.0053 0.464,0.170667 0.170667,0.32 0.016,0.05867 -0.0053,0.05867 -0.02667,0.048 -0.048,0.03733 -0.05867,0.016 -0.05333,-0.01067 -0.05333,-0.02667 -0.144,-0.266667 -0.335999,-0.112 h -0.224 l -0.346667,0.112 -0.229333,0.352 -0.128,0.682666 0.154667,-0.16 0.05867,-0.032 0.464,-0.149333 0.186667,0.01067 0.410666,0.138666 0.05867,0.032 0.277333,0.277334 0.03733,0.05867 0.138667,0.416 v 0.229333 l -0.138667,0.416 -0.03733,0.05867 -0.277333,0.277333 -0.05867,0.03733 -0.410666,0.138667 h -0.234667 l -0.416,-0.138667 -0.05867,-0.03733 -0.272,-0.277333 -0.04267,-0.06933 -0.138666,-0.581333 z m 0.421333,1.167999 0.218666,0.224 0.362667,0.117334 h 0.08533 l 0.357333,-0.117334 0.229333,-0.229333 0.117334,-0.357333 v -0.09067 l -0.117334,-0.357333 -0.229333,-0.224 -0.357333,-0.122666 h -0.08533 l -0.362667,0.122666 -0.224,0.224 -0.111999,0.341333 z m 3.65333,-2.410665 0.01067,-0.05867 0.032,-0.048 0.048,-0.032 0.05867,-0.01067 0.05333,0.01067 0.048,0.032 0.032,0.048 0.016,0.05867 v 1.018666 l 0.05867,-0.048 0.277333,-0.138666 0.064,-0.016 h 0.416 l 0.064,0.016 0.32,0.165333 0.271999,0.277333 0.03733,0.05867 0.138666,0.415999 0.0053,0.325334 -0.144,0.458666 -0.03733,0.05867 -0.271999,0.277333 -0.32,0.165333 -0.064,0.016 h -0.416 l -0.064,-0.016 -0.277333,-0.138667 -0.05867,-0.048 -0.016,0.112 -0.032,0.048 -0.048,0.032 -0.05333,0.01067 -0.05867,-0.01067 -0.048,-0.032 -0.032,-0.048 -0.01067,-0.05867 z m 0.512,2.639999 0.223999,0.112 h 0.341334 l 0.223999,-0.112 0.234667,-0.234667 0.117333,-0.357333 v -0.229333 l -0.117333,-0.357333 -0.234667,-0.234667 -0.223999,-0.112 h -0.341334 l -0.223999,0.112 -0.213334,0.218667 v 0.981332 z m 1.839993,-1.615999 -0.01067,-0.05333 0.01067,-0.05867 0.032,-0.048 0.048,-0.032 0.05333,-0.016 0.05867,0.01067 0.048,0.032 0.032,0.048 0.693333,1.615999 0.693333,-1.615999 0.032,-0.048 0.048,-0.032 0.05867,-0.01067 0.05333,0.016 0.048,0.032 0.032,0.048 0.01067,0.05867 -0.01067,0.05333 -0.826666,1.935998 -0.282667,0.56 -0.304,0.314667 -0.314666,0.165333 -0.202667,0.016 -0.05867,-0.01067 -0.048,-0.032 -0.032,-0.048 -0.01067,-0.05867 0.01067,-0.05333 0.032,-0.048 0.048,-0.03733 0.16,-0.01067 0.223999,-0.112 0.24,-0.24 0.234667,-0.469333 z"
       id="text2-4"
       style="font-size:5.33333px;line-height:1;font-family:'AVHershey Simplex';-inkscape-font-specification:'AVHershey Simplex, Normal';white-space:pre;stroke-width:7.55906;stroke-linecap:round;stroke-linejoin:bevel;paint-order:markers stroke fill"
       transform="matrix(0.26458333,0,0,0.26458333,4.1864454,-8.2030539)"
       aria-label="designed 2026 by" /><path
       style="font-size:5.33333px;line-height:1;font-family:'AVHershey Simplex';-inkscape-font-specification:'AVHershey Simplex, Normal';text-align:center;text-anchor:middle;white-space:pre;stroke-width:7.55906;stroke-linecap:round;stroke-linejoin:bevel;paint-order:markers stroke fill"
       d="m 15.297519,42.661838 0.04267,-0.101333 0.05333,-0.032 0.05867,-0.01067 0.05333,0.01067 0.08,0.08 0.965332,2.538665 0.965333,-2.538665 0.032,-0.048 0.05333,-0.032 h 0.106667 l 0.048,0.032 0.03733,0.048 0.01067,0.05867 v 2.901332 l -0.01067,0.05867 -0.032,0.048 -0.048,0.032 -0.05867,0.01067 -0.05333,-0.01067 -0.05333,-0.032 -0.032,-0.048 -0.01067,-0.05867 v -2.090666 l -0.815999,2.149332 -0.08,0.08 -0.064,0.01067 -0.05333,-0.01067 -0.08,-0.08 -0.816,-2.149332 v 2.090666 l -0.01067,0.05867 -0.032,0.048 -0.05333,0.032 -0.05333,0.01067 -0.05867,-0.01067 -0.048,-0.032 -0.032,-0.048 -0.01067,-0.05867 z m 3.189333,-0.05333 0.032,-0.048 0.138666,-0.138667 0.048,-0.032 0.05867,-0.01067 0.05867,0.01067 0.048,0.032 0.138667,0.138667 0.032,0.048 0.01067,0.05867 -0.01067,0.05867 -0.032,0.048 -0.138667,0.138666 -0.048,0.032 -0.05867,0.01067 -0.05867,-0.01067 -0.048,-0.032 -0.138666,-0.138666 -0.032,-0.048 -0.01067,-0.05867 z m 0.128,1.023999 0.01067,-0.05333 0.032,-0.048 0.048,-0.03733 0.05867,-0.01067 0.05867,0.01067 0.048,0.03733 0.032,0.048 0.01067,0.05333 v 1.935999 l -0.01067,0.05867 -0.032,0.048 -0.048,0.032 -0.05867,0.01067 -0.05867,-0.01067 -0.048,-0.032 -0.032,-0.048 -0.01067,-0.05867 z m 2.629329,0.05333 0.016,-0.106666 0.032,-0.048 0.048,-0.03733 0.05333,-0.01067 0.05867,0.01067 0.048,0.03733 0.032,0.048 0.01067,0.05333 v 1.935999 l -0.01067,0.05867 -0.032,0.048 -0.048,0.032 -0.05867,0.01067 -0.05333,-0.01067 -0.048,-0.032 -0.032,-0.048 -0.016,-0.112 -0.05867,0.048 -0.277334,0.138667 -0.064,0.016 h -0.415999 l -0.064,-0.016 -0.277333,-0.138667 -0.314667,-0.303999 -0.03733,-0.05867 -0.138667,-0.416 v -0.368 l 0.138667,-0.415999 0.03733,-0.05867 0.272,-0.277333 0.32,-0.165333 0.064,-0.016 h 0.415999 l 0.064,0.016 0.314667,0.165333 z m -0.213333,0.208 -0.224,-0.112 h -0.341333 l -0.224,0.112 -0.234666,0.234667 -0.117334,0.357333 v 0.229333 l 0.117334,0.357333 0.234666,0.234667 0.224,0.112 h 0.341333 l 0.224,-0.112 0.213333,-0.213334 v -0.981332 z m -11.3279914,4.106662 0.010667,-0.05867 0.032,-0.048 0.048,-0.032 0.058667,-0.01067 0.053333,0.01067 0.048,0.032 0.037333,0.048 0.010667,0.05867 v 1.573333 l 1.679999,-1.679999 0.048,-0.032 0.05333,-0.01067 0.05867,0.01067 0.048,0.032 0.032,0.048 0.01067,0.05867 -0.01067,0.05867 -0.032,0.048 -1.151999,1.151999 1.167999,1.551999 0.02133,0.05333 0.0053,0.05867 -0.02133,0.05333 -0.03733,0.04267 -0.05333,0.02667 -0.05867,0.0053 -0.05333,-0.02133 -0.04267,-0.03733 -1.141333,-1.519999 -0.522666,0.522666 v 0.906666 l -0.010667,0.05867 -0.037333,0.048 -0.048,0.032 -0.053333,0.01067 -0.058667,-0.01067 -0.048,-0.032 -0.032,-0.048 -0.010667,-0.05867 z m 2.7733274,-0.05867 0.032,-0.048 0.138667,-0.138667 0.048,-0.032 0.05867,-0.01067 0.05867,0.01067 0.048,0.032 0.138667,0.138667 0.032,0.048 0.01067,0.05867 -0.01067,0.05867 -0.032,0.048 -0.138667,0.138667 -0.048,0.032 -0.05867,0.01067 -0.05867,-0.01067 -0.048,-0.032 -0.138667,-0.138667 -0.032,-0.048 -0.01067,-0.05867 z m 0.128,1.023999 0.01067,-0.05333 0.032,-0.048 0.048,-0.03733 0.05867,-0.01067 0.05867,0.01067 0.048,0.03733 0.032,0.048 0.01067,0.05333 v 1.935999 l -0.01067,0.05867 -0.032,0.048 -0.048,0.032 -0.05867,0.01067 -0.05867,-0.01067 -0.048,-0.032 -0.032,-0.048 -0.01067,-0.05867 z m 1.114664,0.368 0.03733,-0.05867 0.272,-0.277333 0.32,-0.165333 0.064,-0.016 h 0.416 l 0.064,0.016 0.277333,0.138666 0.208,0.208 0.133333,0.272 0.016,0.06933 -0.01067,0.330667 -0.032,0.05333 -0.048,0.032 -0.05867,0.01067 h -1.503999 v 0.101333 l 0.117333,0.357333 0.234667,0.234667 0.223999,0.112 h 0.341334 l 0.223999,-0.112 0.261334,-0.261333 0.048,-0.032 0.05333,-0.01067 0.05867,0.01067 0.048,0.032 0.032,0.05333 0.01067,0.05333 -0.01067,0.05867 -0.309333,0.325333 -0.314666,0.165333 -0.064,0.016 h -0.416 l -0.064,-0.016 -0.32,-0.165333 -0.272,-0.277333 -0.03733,-0.05867 -0.138666,-0.416 -0.0053,-0.319999 z m 1.509333,0.314666 v -0.09067 l -0.106667,-0.224 -0.106667,-0.106667 -0.223999,-0.112 h -0.341334 l -0.223999,0.112 -0.234667,0.234667 -0.064,0.186666 z m 2.645332,-0.277333 -0.0053,0.05867 -0.02667,0.048 -0.048,0.03733 -0.05867,0.016 -0.05333,-0.0053 -0.05333,-0.032 -0.144,-0.266667 -0.336,-0.112 h -0.362666 l -0.336,0.112 -0.07467,0.154667 0.08,0.165333 0.213333,0.106667 0.671999,0.133333 0.352,0.181333 0.165333,0.314667 0.016,0.202666 -0.016,0.06933 -0.170666,0.319999 -0.464,0.170667 -0.464,0.0053 -0.458666,-0.144 -0.05333,-0.032 -0.176,-0.319999 -0.01067,-0.05867 0.0053,-0.05867 0.02667,-0.048 0.048,-0.03733 0.05333,-0.016 0.05867,0.01067 0.05333,0.02667 0.144,0.266667 0.336,0.112 h 0.362666 l 0.336,-0.112 0.09067,-0.186667 v -0.06933 l -0.096,-0.202667 -0.213333,-0.106666 -0.672,-0.133333 -0.352,-0.176 -0.170666,-0.314667 -0.016,-0.06933 0.016,-0.064 0.176,-0.325333 0.463999,-0.165333 0.464,-0.01067 0.458667,0.149333 0.05333,0.02667 0.03733,0.048 z m 0.672003,-0.405333 0.01067,-0.05333 0.032,-0.048 0.048,-0.03733 0.05867,-0.01067 0.05867,0.01067 0.048,0.03733 0.032,0.048 0.01067,0.245333 0.197334,-0.186667 0.277333,-0.138666 0.06933,-0.016 h 0.410667 l 0.06933,0.016 0.32,0.176 0.09067,0.234666 0.245333,-0.245333 0.314667,-0.165333 0.06933,-0.016 h 0.410667 l 0.06933,0.016 0.32,0.176 0.170666,0.464 0.0053,1.429332 -0.01067,0.05867 -0.032,0.048 -0.048,0.032 -0.05867,0.01067 -0.05867,-0.01067 -0.048,-0.032 -0.032,-0.048 -0.01067,-0.05867 v -1.359999 l -0.112,-0.330667 -0.186666,-0.096 h -0.346667 l -0.224,0.112 -0.351999,0.357333 v 1.317333 l -0.01067,0.05867 -0.032,0.048 -0.048,0.032 -0.05867,0.01067 -0.05867,-0.01067 -0.048,-0.032 -0.032,-0.048 -0.01067,-0.05867 v -1.359999 l -0.112,-0.330667 -0.186666,-0.096 h -0.346667 l -0.224,0.112 -0.352,0.357333 v 1.317333 l -0.01067,0.05867 -0.032,0.048 -0.048,0.032 -0.05867,0.01067 -0.05867,-0.01067 -0.048,-0.032 -0.032,-0.048 -0.01067,-0.05867 z m 5.669326,0.05333 0.016,-0.106666 0.032,-0.048 0.048,-0.03733 0.05333,-0.01067 0.05867,0.01067 0.048,0.03733 0.032,0.048 0.01067,0.05333 v 1.935999 l -0.01067,0.05867 -0.032,0.048 -0.048,0.032 -0.05867,0.01067 -0.05333,-0.01067 -0.048,-0.032 -0.032,-0.048 -0.016,-0.112 -0.05867,0.048 -0.277333,0.138666 -0.064,0.016 h -0.416 l -0.064,-0.016 -0.277333,-0.138666 -0.314666,-0.304 -0.03733,-0.05867 -0.138666,-0.416 v -0.367999 l 0.138666,-0.416 0.03733,-0.05867 0.272,-0.277333 0.319999,-0.165333 0.064,-0.016 h 0.416 l 0.064,0.016 0.314667,0.165333 z m -0.213333,0.208 -0.224,-0.112 h -0.341333 l -0.224,0.112 -0.234667,0.234667 -0.117333,0.357333 v 0.229333 l 0.117333,0.357333 0.234667,0.234667 0.224,0.112 h 0.341333 l 0.224,-0.112 0.213333,-0.213333 v -0.981333 z m 1.317335,-0.261333 0.016,-0.05333 0.032,-0.048 0.048,-0.03733 0.05333,-0.01067 0.05867,0.01067 0.048,0.03733 0.032,0.048 0.01067,0.245333 0.202666,-0.186667 0.272,-0.138666 0.06933,-0.016 h 0.416 l 0.064,0.016 0.325333,0.176 0.02667,0.048 0.144,0.463999 v 1.381333 l -0.01067,0.05867 -0.032,0.048 -0.048,0.032 -0.05867,0.01067 -0.05333,-0.01067 -0.048,-0.032 -0.032,-0.048 -0.016,-0.05867 v -1.359999 l -0.106666,-0.330667 -0.192,-0.096 h -0.341333 l -0.224,0.112 -0.357333,0.357333 v 1.317333 l -0.01067,0.05867 -0.032,0.048 -0.048,0.032 -0.05867,0.01067 -0.05333,-0.01067 -0.048,-0.032 -0.032,-0.048 -0.016,-0.05867 z"
       id="text2-6"
       transform="matrix(0.26458333,0,0,0.26458333,10.527808,0.57543581)"
       aria-label="Mia&#10;Kiesman" /><path
       id="rect3"
       style="fill:none;stroke:#000000;stroke-width:0.2;stroke-linecap:round"
       d="M 0,0 H 20 V 15 H 0 Z" /></g></svg>
