<?xml version="1.0" encoding="UTF-8" standalone="no"?>
<!-- Created with Inkscape (http://www.inkscape.org/) -->

<svg
   width="418.04733mm"
   height="385.23334mm"
   viewBox="0 0 418.04734 385.23334"
   version="1.1"
   id="svg1"
   xml:space="preserve"
   inkscape:version="1.3.2 (091e20e, 2023-11-25)"
   sodipodi:docname="ilda.svg"
   xmlns:inkscape="http://www.inkscape.org/namespaces/inkscape"
   xmlns:sodipodi="http://sodipodi.sourceforge.net/DTD/sodipodi-0.dtd"
   xmlns="http://www.w3.org/2000/svg"
   xmlns:svg="http://www.w3.org/2000/svg"><sodipodi:namedview
     id="namedview1"
     pagecolor="#ffffff"
     bordercolor="#000000"
     borderopacity="0.25"
     inkscape:showpageshadow="2"
     inkscape:pageopacity="0.0"
     inkscape:pagecheckerboard="0"
     inkscape:deskcolor="#d1d1d1"
     inkscape:document-units="mm"
     inkscape:zoom="0.47179708"
     inkscape:cx="672.95881"
     inkscape:cy="848.8819"
     inkscape:window-width="1680"
     inkscape:window-height="1050"
     inkscape:window-x="0"
     inkscape:window-y="0"
     inkscape:window-maximized="0"
     inkscape:current-layer="layer1" /><defs
     id="defs1" /><g
     inkscape:label="Layer 1"
     inkscape:groupmode="layer"
     id="layer1"
     transform="translate(-9.1104821,47.492703)"><path
       style="fill:#000000"
       d="M 218.13332,337.74064 H 10.411342 l -0.6494299,-0.64944 -0.64943,-0.64943 -10e-4,-70.85421 -10e-4,-70.85422 10e-4,-120.430379 10e-4,-120.430374 0.16821,-0.43833 0.1682,-0.43833 0.6425999,-0.24432 0.6426,-0.24431 h 207.680688 207.6807 l 0.52917,0.52916 0.52916,0.52917 0.002,46.5005204 0.002,46.5005216 -10e-4,122.898961 -0.001,122.89896 -5e-4,22.03859 -5e-4,22.03859 -0.64943,0.64943 -0.64943,0.64944 z m 0.25152,-2.18265 206.52036,-0.0663 0.13229,-70.51146 0.13229,-70.51146 -0.13229,-119.988548 -0.13229,-119.988545 -206.47999,-0.0663 -206.479978,-0.0663 -0.35804,0.29715 -0.35805,0.29715 V 144.97115 334.98897 l 0.31767,0.31767 0.31767,0.31767 z m -169.567466,-9.7236 h -0.546561 l -0.489207,-0.48921 -0.489208,-0.48921 0.121114,-0.8252 0.121113,-0.8252 0.368094,-0.30549 0.368094,-0.30549 v -0.58805 -0.58806 l 0.529167,-0.47889 0.529167,-0.47888 v -0.64487 -0.64486 l 0.529166,-0.67273 0.529167,-0.67273 v -0.453 -0.453 l 0.529167,-0.61013 0.529166,-0.61014 v -0.57997 -0.57996 l 0.529167,-0.47889 0.529167,-0.47889 v -0.57433 -0.57433 l 0.612365,-0.57529 0.612365,-0.57529 h 0.789927 0.789926 l 0.3175,0.3175 0.3175,0.3175 v 0.71939 0.7194 l -0.364243,0.74904 -0.364242,0.74905 -0.600852,1.32291 -0.600852,1.32292 -0.227451,0.39688 -0.227451,0.39687 -0.288483,0.66146 -0.288483,0.66146 -0.492075,1.05833 -0.492075,1.05833 -0.817206,1.78315 -0.817207,1.78315 -0.499588,0.26738 -0.499587,0.26737 z m 12.860475,-0.27632 -1.368494,-0.0117 -1.189738,-0.65144 -1.189737,-0.65144 -0.202804,-0.72589 -0.202804,-0.72589 0.138895,-0.58768 0.138895,-0.58767 0.52,-0.2783 0.52,-0.27829 0.964396,0.40295 0.964396,0.40295 h 0.884421 0.88442 l 0.286128,-0.53464 0.286128,-0.53463 -0.160142,-0.25912 -0.160142,-0.25911 h -0.610162 -0.610162 l -0.69714,-0.54837 -0.697139,-0.54837 v -0.73354 -0.73354 l 0.463505,-0.41947 0.463505,-0.41947 0.793265,-0.30276 0.793266,-0.30276 -0.484519,-0.35586 -0.484518,-0.35585 -0.747973,0.26075 -0.747973,0.26074 -1.016467,-0.0836 -1.016467,-0.0836 -0.07476,-1.05833 -0.07476,-1.05834 0.886044,-0.70009 0.886044,-0.7001 1.040797,-0.0645 1.040797,-0.0645 0.982981,0.037 0.982981,0.037 0.951997,0.83586 0.951996,0.83586 -0.06516,2.44399 -0.06516,2.44399 0.445284,0.67959 0.445285,0.67959 -0.01148,0.73691 -0.01148,0.73691 -0.605583,1.05834 -0.605583,1.05833 -1.123302,0.8599 -1.123302,0.85989 z m 10.508792,0.0117 H 71.39237 l -0.800608,-0.59531 -0.800608,-0.59531 -0.706003,-0.76624 -0.706004,-0.76624 v -0.63132 -0.63132 l -0.396875,-0.94986 -0.396875,-0.94985 v -0.86047 -0.86046 l 0.396875,-1.12487 0.396875,-1.12486 v -0.57311 -0.5731 l 1.156316,-1.13484 1.156317,-1.13484 1.453596,-0.0131 1.453595,-0.0131 0.829672,0.6134 0.829671,0.6134 v 0.28832 0.28832 l 0.529167,0.45308 0.529166,0.45309 v 0.86423 0.86423 l 0.241916,0.84352 0.241916,0.84351 -0.318386,1.93286 -0.318386,1.93287 -0.593284,0.96195 -0.593283,0.96196 -0.998114,0.69169 -0.998114,0.69169 z m 0.04133,-3.70416 h 0.357472 l 0.462077,-1.46588 0.462077,-1.46588 -0.382411,-1.51068 -0.382411,-1.51069 h -0.389061 -0.389061 l -0.334643,0.66146 -0.334642,0.66146 -0.0039,1.48187 -0.0039,1.48187 0.290466,0.83323 0.290466,0.83324 z m 309.290329,3.70416 h -2.54357 l -0.64883,-0.70009 -0.64882,-0.70009 0.008,-0.42439 0.008,-0.42439 0.39884,-0.52916 0.39885,-0.52917 0.82101,-0.27859 0.82102,-0.2786 0.0428,-1.6659 0.0428,-1.66591 -0.67573,-0.25594 -0.67573,-0.25593 -0.59531,-0.55767 -0.59531,-0.55766 v -0.44736 -0.44737 l 0.54837,-0.69714 0.54837,-0.69714 h 2.89121 2.89122 l 0.52916,0.52917 0.52917,0.52917 0.52917,-0.52917 0.52916,-0.52917 h 2.09503 2.09503 l 0.4283,0.16436 0.4283,0.16435 0.40431,0.78185 0.40431,0.78185 -0.4141,0.63199 -0.41409,0.63198 -0.52917,0.28321 -0.52917,0.2832 v 1.84277 1.84278 h 0.79375 0.79375 v -0.921 -0.92101 l 0.63455,-0.15926 0.63455,-0.15926 0.61952,0.0881 0.61952,0.0881 0.0945,0.52917 0.0945,0.52916 0.2389,0.25136 0.2389,0.25135 -0.0186,-2.10343 -0.0186,-2.10344 -0.21036,-0.52917 -0.21036,-0.52917 0.24551,-0.65607 0.24551,-0.65607 0.31417,-0.19977 0.31418,-0.19977 2.27541,-0.004 2.2754,-0.004 1.0885,0.7885 1.08849,0.7885 0.46913,0.73286 0.46913,0.73285 0.33416,0.34963 0.33416,0.34963 v 1.45192 1.45193 l 0.22973,-0.14199 0.22974,-0.14199 0.17924,-1.58426 0.17924,-1.58426 -0.41601,-0.6349 -0.416,-0.63491 0.28816,-0.75793 0.28817,-0.75793 0.31417,-0.19977 0.31418,-0.19977 1.562,-0.004 1.562,-0.004 1.01769,1.10236 1.01769,1.10236 v 0.55856 0.55856 l 0.43119,0.61562 0.4312,0.61562 0.24093,1.07229 0.24092,1.07229 0.78309,0.98873 0.78308,0.98872 v 0.67033 0.67032 l -0.69714,0.54837 -0.69714,0.54837 h -1.27211 -1.27211 l -0.88723,-0.52348 -0.88724,-0.52348 -0.44821,0.52348 -0.44822,0.52348 h -1.48394 -1.48393 l -0.70663,-0.75645 -0.70663,-0.75644 -0.6563,0.42126 -0.65629,0.42126 -0.18862,0.26904 -0.18862,0.26904 -2.40665,0.0931 -2.40665,0.0931 -0.53385,-0.48313 -0.53386,-0.48313 -0.79492,0.45622 -0.79492,0.45622 h -3.41815 -3.41814 l -0.56039,-0.56039 -0.5604,-0.5604 -0.16721,0.2562 -0.16721,0.25621 -0.57791,0.30419 -0.57792,0.30419 z m 4.01561,-2.38125 h 0.0566 l 0.67348,-0.67348 0.67349,-0.67349 v -1.87586 -1.87586 l -0.69183,-0.64117 -0.69183,-0.64116 -0.36683,0.52373 -0.36684,0.52373 -0.79342,0.17426 -0.79342,0.17426 v 1.81004 1.81004 l 0.80637,0.17711 0.80636,0.17711 0.31561,0.50537 0.31562,0.50537 z m 14.18917,-1.32291 h 0.90351 l 0.15028,-0.92605 0.15027,-0.92604 -0.15255,-0.94005 -0.15255,-0.94005 -0.823,0.0802 -0.823,0.0802 -0.0782,1.78594 -0.0782,1.78594 z m -368.487202,3.43958 h -2.973615 l -0.579057,-0.53947 -0.579057,-0.53948 v -0.66854 -0.66855 l 0.273892,-0.51177 0.273893,-0.51177 h 0.784441 0.784441 v -2.91042 -2.91042 h -0.655359 -0.655359 l -0.432141,-0.65953 -0.432141,-0.65953 0.154455,-0.59724 0.154455,-0.59724 1.051609,-0.59531 1.05161,-0.59531 h 1.204352 1.204352 l 0.529167,0.52916 0.529167,0.52917 v 4.23333 4.23334 h 0.778747 0.778747 l 0.411878,0.58803 0.411878,0.58804 v 0.43462 0.43461 l -0.548371,0.69714 -0.54837,0.69714 z m 9.81493,0 h -3.027379 l -0.69714,-0.54837 -0.69714,-0.54837 v -0.90131 -0.90131 l 2.662511,-2.66065 2.662512,-2.66065 -0.08282,-0.71832 -0.08282,-0.71831 -0.529166,-0.006 -0.529167,-0.006 -0.842242,0.6018 -0.842243,0.60179 h -0.664109 -0.664109 l -0.411877,-0.58804 -0.411878,-0.58803 v -0.60288 -0.60289 l 1.090237,-1.05803 1.090237,-1.05804 2.018617,10e-4 2.018617,10e-4 0.79375,0.78144 0.79375,0.78144 0.358378,0.42639 0.358378,0.4264 0.132888,0.99075 0.132888,0.99076 -0.709324,1.35655 -0.709324,1.35656 -0.178817,0.0816 -0.178817,0.0817 -0.727604,0.88019 -0.727604,0.8802 v 0.28529 0.28529 l 0.483854,-0.43788 0.483854,-0.43788 h 0.528359 0.528358 l 0.575288,0.61236 0.575287,0.61237 v 0.7309 0.7309 l -0.773398,0.7734 -0.773397,0.7734 z m 38.874552,-0.0157 -1.888918,-0.0157 -0.463021,-0.46949 -0.463021,-0.46949 v -0.79158 -0.79158 l 0.595313,-0.55921 0.595312,-0.5592 -0.04886,-2.56001 -0.04887,-2.56 -0.546447,-0.50909 -0.546447,-0.5091 v -0.92228 -0.92228 l 0.666397,-0.25337 0.666396,-0.25336 4.370466,0.0615 4.370467,0.0615 0.250752,0.39687 0.250753,0.39688 0.0041,0.73653 0.0041,0.73652 -0.926042,0.54638 -0.926042,0.54638 v 0.23845 0.23845 h -0.403423 -0.403424 l -0.254812,0.6702 -0.254813,0.67021 0.325006,0.52042 0.325006,0.52042 h 0.180419 0.18042 l 0.308714,0.93541 0.308715,0.93541 0.703992,0.44754 0.703992,0.44754 0.194386,0.27069 0.194386,0.2707 0.0041,0.7173 0.0041,0.71729 -0.579057,0.53948 -0.579057,0.53947 h -0.620877 -0.620877 l -0.652149,-0.42731 -0.65215,-0.4273 v -0.32544 -0.32544 l -0.529166,-0.47889 -0.529167,-0.47888 v -0.44204 -0.44204 l -0.612365,-0.57529 -0.612365,-0.57529 h -0.181385 -0.181385 v 0.49831 0.49831 l 0.500457,0.13087 0.500457,0.13087 0.192893,1.14173 0.192894,1.14172 -0.590371,0.47806 -0.59037,0.47805 z m 192.57984,-26.44507 -0.26458,4.9e-4 -0.81722,-0.49834 -0.81722,-0.49833 -0.57184,-0.72698 -0.57185,-0.72699 v -0.73777 -0.73776 l 0.69298,-0.82356 0.69297,-0.82355 0.76656,-0.39641 0.76657,-0.3964 1.08613,0.29247 1.08614,0.29246 0.76162,0.83387 0.76162,0.83386 v 0.88473 0.88473 l -0.68923,0.90362 -0.68922,0.90362 -0.96442,0.26788 -0.96443,0.26787 z m 0.35572,-2.42977 0.70261,-0.0813 v -0.66145 -0.66146 l -0.69302,-0.0804 -0.69302,-0.0804 -0.15411,0.58932 -0.15411,0.58932 0.14451,0.23383 0.14452,0.23383 z m -87.99068,1.63849 h -1.19368 l -0.90651,-0.98968 -0.90651,-0.98968 -0.15198,-0.60556 -0.15199,-0.60555 0.73903,-1.06642 0.73902,-1.06641 0.46483,-0.24877 0.46483,-0.24877 h 1.02623 1.02622 l 0.7412,0.77364 0.74119,0.77364 0.13163,1.16785 0.13164,1.16784 -0.85074,0.96893 -0.85073,0.96894 z m 50.23013,0 h -0.98621 l -0.3175,-0.3175 -0.3175,-0.3175 v -1.12271 -1.12271 l 0.58804,-0.41187 0.58804,-0.41188 h 0.57906 0.57907 l 0.68498,0.81405 0.68498,0.81405 v 0.34089 0.3409 l -0.54837,0.69714 -0.54837,0.69714 z m -73.05872,-21.11481 -0.92604,0.12187 -0.67577,-0.15301 -0.67578,-0.15301 -0.67517,-0.53727 -0.67517,-0.53726 -0.36193,-1.00091 -0.36194,-1.0009 0.52226,-0.96718 0.52225,-0.96718 0.89902,-0.60351 0.89903,-0.6035 0.82077,0.0127 0.82076,0.0127 0.9123,0.45031 0.91229,0.45031 0.63837,1.24427 0.63837,1.24427 -0.54197,0.87691 -0.54196,0.87691 -0.61182,0.5558 -0.61183,0.55579 z m 49.44365,-0.0519 h -1.18997 l -0.57892,-0.78304 -0.57892,-0.78303 v -0.51636 -0.51637 l 0.81405,-0.68497 0.81405,-0.68498 h 0.91777 0.91777 l 0.64943,0.64943 0.64943,0.64943 v 0.75966 0.75965 l -0.61236,0.57529 -0.61237,0.57529 z m 37.57883,0 h -0.7814 l -0.26871,-0.70676 -0.26871,-0.70676 0.0792,-0.41108 0.0792,-0.41107 0.6176,-0.3079 0.61759,-0.30791 0.70298,0.18641 0.70297,0.18641 0.0804,0.80927 0.0804,0.80926 -0.43006,0.43007 -0.43006,0.43006 z m -30.53393,-31.75 h -13.52022 l -0.3175,-0.3175 -0.3175,-0.3175 v -0.19277 -0.19277 l 0.41578,-0.41577 0.41577,-0.41578 h 13.32366 13.32366 l 0.41578,0.41578 0.41577,0.41577 v 0.19277 0.19277 l -0.3175,0.3175 -0.3175,0.3175 z m -0.11906,-12.98547 -9.67053,-0.0209 -0.33073,-0.13345 -0.33073,-0.13346 v -0.87568 -0.87569 l 0.41852,-0.1606 0.41851,-0.1606 h 9.58274 9.58274 l 0.3175,0.3175 0.3175,0.3175 v 0.55563 0.55562 l -0.3175,0.3175 -0.3175,0.3175 z m -0.95689,-13.47287 h -7.53962 l -0.1661,-0.43283 -0.16609,-0.43284 0.26924,-0.42706 0.26924,-0.42706 7.29045,-0.0703 7.29045,-0.0703 0.4194,0.4194 0.41939,0.41939 -0.27337,0.51079 -0.27337,0.51079 z m 4.62758,-13.50737 -0.64121,0.14592 -4.7625,-0.1323 -4.76251,-0.13229 -0.0893,-0.63153 -0.0893,-0.63154 0.35388,-0.22431 0.35388,-0.22431 5.06084,-0.004 5.06083,-0.004 0.34778,0.41905 0.34778,0.41906 -0.26948,0.42722 -0.26948,0.42722 z m -5.62992,-5.89585 -62.21547,0.0437 -0.60706,-0.23791 -0.60707,-0.23791 -0.39807,-0.95271 -0.39807,-0.95271 0.0514,-28.17014 0.0514,-28.17014 -0.24934,-0.24934 -0.24935,-0.24935 -46.81876,-0.0669 -46.818756,-0.0669 v -0.92604 -0.92604 l 46.869366,-0.0669 46.86937,-0.0669 0.19164,-0.4623 0.19165,-0.46229 -0.0467,-27.43123 -0.0467,-27.431233 0.28896,-1.073122 0.28896,-1.073122 0.52251,-0.279638 0.5225,-0.279637 62.47435,0.0012 62.47435,0.0012 0.47538,0.430216 0.47538,0.430216 0.0849,28.56071 0.0849,28.56072 0.39687,0.25117 0.39688,0.25117 54.34983,-0.0625 54.34983,-0.0625 0.095,-0.28513 0.095,-0.28514 -0.60216,-0.30826 -0.60217,-0.30825 -0.52803,-0.33265 -0.52803,-0.33265 -1.22848,-0.99219 -1.22848,-0.99218 h -0.1695 -0.1695 l -1.30265,-0.99219 -1.30265,-0.99219 -0.5525,-0.39687 -0.5525,-0.39688 -0.0553,-0.78338 -0.0553,-0.78338 0.4435,-0.0922 0.4435,-0.0922 1.11568,0.74324 1.11569,0.74325 0.42519,0.26668 0.42519,0.26669 2.03644,1.51925 2.03643,1.51925 h 0.21987 0.21986 l 0.42997,0.46302 0.42997,0.46303 0.88561,0.60819 0.8856,0.60819 1.14384,0.818 1.14384,0.818 -0.17316,0.68993 -0.17316,0.68993 -0.1328,0.13284 -0.13279,0.13283 -56.57682,0.13229 -56.57681,0.1323 -0.22045,0.22039 -0.22044,0.22039 -0.0874,28.79586 -0.0874,28.79585 -0.53569,0.48479 -0.53568,0.4848 z m -40.22198,-2.29257 h 21.53047 v -0.26458 -0.26459 l -0.8599,-9.9e-4 -0.85989,-9.8e-4 -0.86629,-0.52818 -0.86629,-0.52818 h -0.48177 -0.48176 l -0.47889,-0.52917 -0.47889,-0.52916 h -0.56429 -0.56428 l -2.10669,-0.87751 -2.10668,-0.87751 -0.79375,-0.43395 -0.79375,-0.43395 -1.05834,-0.54445 -1.05833,-0.54444 -0.98195,-0.59149 -0.98195,-0.59149 -1.26701,-0.7728 -1.26701,-0.7728 -1.45521,-1.14488 -1.4552,-1.14487 -0.41908,-0.39743 -0.41907,-0.39743 h -0.24316 -0.24317 l -1.9836,-1.79116 -1.98359,-1.79115 -1.98438,-2.11954 -1.98437,-2.11955 -1.32292,-1.45136 -1.32292,-1.45136 -0.92049,-1.45096 -0.9205,-1.45097 -0.33627,-0.34962 -0.33628,-0.34963 v -0.29478 -0.29478 l -0.50618,-0.54622 -0.50619,-0.54622 -0.64473,-1.2215 -0.64474,-1.22151 -0.43658,-0.6233 -0.43658,-0.6233 v -0.4379 -0.4379 l -0.38987,-0.32357 -0.38987,-0.32357 -0.16697,-0.89002 -0.16697,-0.89003 -0.3622,-0.3006 -0.3622,-0.3006 -0.17806,-0.9656 -0.17807,-0.9656 -0.49039,-0.92212 -0.4904,-0.92212 v -0.71591 -0.71591 l -0.22852,-0.14123 -0.22852,-0.14124 -0.16605,1.38239 -0.16606,1.38239 -0.002,18.42162 -0.002,18.42161 0.16537,0.82683 0.16536,0.82682 z m 42.16797,-0.14266 5.15937,-0.10307 2.11667,-0.29558 2.11667,-0.29559 1.98437,-0.49301 1.98438,-0.49301 1.33512,-0.37328 1.33512,-0.37328 0.56571,-0.30276 0.56572,-0.30276 h 0.5549 0.55491 l 1.54514,-0.52052 1.54513,-0.52052 2.26683,-1.06698 2.26682,-1.06698 h 0.29145 0.29145 l 0.71689,-0.47362 0.71689,-0.47363 0.52917,-0.32544 0.52916,-0.32545 0.81482,-0.37627 0.81481,-0.37627 0.34206,-0.41216 0.34207,-0.41216 h 0.3939 0.39391 l 1.26406,-1.05833 1.26406,-1.05834 h 0.14846 0.14845 l 1.16141,-0.78382 1.16141,-0.78383 1.36536,-1.26669 1.36536,-1.2667 0.95807,-0.79375 0.95807,-0.79375 1.86823,-1.90485 1.86823,-1.90485 0.26339,-0.4764 0.26338,-0.4764 0.3015,-0.26458 0.3015,-0.26459 1.10677,-1.35963 1.10677,-1.35964 v -0.24019 -0.2402 l 0.46302,-0.60673 0.46302,-0.60673 0.59531,-0.74205 0.59531,-0.74205 v -0.27363 -0.27364 l 0.34776,-0.34963 0.34775,-0.34963 0.98101,-1.98437 0.98101,-1.98438 0.24196,-0.39687 0.24196,-0.39688 0.42914,-0.92604 0.42913,-0.92604 0.59737,-1.5875 0.59736,-1.5875 0.46922,-1.32292 0.46922,-1.32291 0.21725,-1.32292 0.21725,-1.32292 0.39054,-0.92604 0.39053,-0.92604 0.27916,-1.85208 0.27917,-1.85209 0.15654,-3.07713 0.15654,-3.07714 -0.42741,-0.16401 -0.4274,-0.16401 h -26.55176 -26.55177 l -0.74482,0.32015 -0.74483,0.32015 -2.64584,0.14287 -2.64583,0.14287 -0.13229,2.81788 -0.13229,2.81787 -0.50403,0.55556 -0.50403,0.55557 h -0.83212 -0.83211 l -0.3175,-0.3175 -0.3175,-0.3175 v -2.70357 -2.70357 l -0.1606,-0.41852 -0.1606,-0.41851 h -2.57039 -2.5704 l -1.17161,-0.39868 -1.17161,-0.39869 -25.4,0.068 -25.4,0.068 -0.0769,2.34871 -0.0769,2.34872 0.39912,2.87083 0.39911,2.87084 0.67001,1.99592 0.67001,1.99591 v 0.4367 0.43669 l 0.67309,1.74055 0.67309,1.74055 0.88929,2.11667 0.88929,2.11666 0.15181,0.39688 0.1518,0.39687 0.66681,1.05834 0.66682,1.05833 0.5263,1.05833 0.5263,1.05834 0.91965,1.32291 0.91965,1.32292 1.66315,2.23876 1.66316,2.23876 3.01287,3.10009 3.01288,3.10008 1.47315,1.01116 1.47316,1.01115 0.60955,0.56169 0.60955,0.56168 1.91155,1.2904 1.91156,1.2904 0.66578,0.32985 0.66578,0.32986 0.79375,0.49255 0.79375,0.49256 0.95594,0.54177 0.95594,0.54177 0.49927,0.25931 0.49927,0.2593 1.4552,0.59593 1.45521,0.59592 1.5875,0.73604 1.5875,0.73604 1.45521,0.39654 1.45521,0.39654 1.85208,0.55519 1.85209,0.5552 2.74351,0.67814 2.74352,0.67813 3.73878,0.22353 3.73877,0.22353 z m 37.62041,0.0781 21.77855,-0.0677 0.0678,-20.57136 0.0678,-20.57135 -0.20005,0.004 -0.20006,0.005 -0.57679,1.38454 -0.57678,1.38455 -0.16899,0.66146 -0.16899,0.66146 -0.35624,0.79375 -0.35624,0.79375 -1.41153,2.8608 -1.41153,2.86081 -0.37348,0.71107 -0.37348,0.71107 -0.88329,1.16253 -0.88329,1.16253 v 0.24733 0.24734 l -1.5875,1.94277 -1.5875,1.94278 v 0.30226 0.30226 l -3.51558,3.48885 -3.51559,3.48885 -1.07932,0.99219 -1.07933,0.99219 h -0.19702 -0.19701 l -1.22735,1.00421 -1.22734,1.00421 -0.79375,0.51393 -0.79375,0.51394 -0.42519,0.26779 -0.42519,0.26779 -1.16231,0.75557 -1.16231,0.75557 -0.94027,0.63349 -0.94026,0.6335 h -0.28082 -0.28083 l -0.631,0.4774 -0.63099,0.4774 -1.71979,0.73632 -1.71979,0.73631 -0.83374,0.37379 -0.83373,0.37378 h -0.64662 -0.64661 l -0.47889,0.52916 -0.47889,0.52917 h -0.50129 -0.5013 l -0.72361,0.37419 -0.72361,0.37419 -0.98597,0.18497 -0.98596,0.18497 -0.14594,0.23613 -0.14594,0.23613 z m -76.80079,-58.93823 24.23142,-7.5e-4 4.96094,-0.17338 4.96094,-0.17338 v -3.21254 -3.21254 l 0.3175,-0.3175 0.3175,-0.3175 h 0.85392 0.85392 l 0.54837,0.69714 0.54837,0.69714 v 2.83309 2.83309 l 4.56406,0.17313 4.56406,0.17313 25.44451,8e-4 25.44451,8.1e-4 0.41807,-0.16043 0.41808,-0.16043 -0.15155,-3.08071 -0.15154,-3.08072 -0.36908,-1.90732 -0.36907,-1.90732 -0.40498,-0.96926 -0.40499,-0.96926 v -0.7624 -0.7624 l -0.52916,-0.98731 -0.52917,-0.98731 v -0.54953 -0.54954 l -0.52917,-1.09525 -0.52916,-1.09525 v -0.27314 -0.27315 l -0.82641,-1.65786 -0.82641,-1.65787 -0.5003,-0.92604 -0.5003,-0.92604 -0.21967,-0.39687 -0.21967,-0.39688 -0.35438,-0.66146 -0.35438,-0.66146 -0.36758,-0.7276 -0.36758,-0.7276 h -0.24016 -0.24017 l -0.16112,-0.64199 -0.16113,-0.64199 -0.50537,-0.45735 -0.50537,-0.45735 v -0.3466 -0.34656 l -0.52917,-0.2832 -0.52917,-0.28321 v -0.27607 -0.27607 l -1.64723,-2.02972 -1.64723,-2.02973 -2.3515,-2.248955 -2.3515,-2.248958 -0.55161,-0.209306 -0.55162,-0.209306 -0.80746,-0.877002 -0.80747,-0.877001 -0.46302,-0.16216 -0.46302,-0.162159 V 94.33906 94.072968 l -0.72761,-0.411716 -0.7276,-0.411716 -0.6992,-0.454975 -0.6992,-0.454974 -1.2323,-0.859896 -1.23229,-0.859896 h -0.36799 -0.368 l -0.14453,-0.23386 -0.14454,-0.23386 -1.12785,-0.573902 -1.12785,-0.573901 -1.32292,-0.764569 -1.32292,-0.764569 -0.39687,-0.02105 -0.39688,-0.02105 -0.66145,-0.517401 -0.66146,-0.5174 -0.53644,-0.0059 -0.53644,-0.0059 -0.5219,-0.365513 -0.52189,-0.365513 -1.45521,-0.403156 -1.45521,-0.403157 -2.64583,-0.79036 -2.64583,-0.79036 -1.98438,-0.449031 -1.98437,-0.44903 -4.49792,-0.266237 -4.49792,-0.266236 -5.74223,0.173133 -5.74224,0.173133 -3.65047,0.777467 -3.65047,0.777466 -1.32292,0.388404 -1.32291,0.388404 -1.32292,0.419692 -1.32292,0.419693 -0.92604,0.477027 -0.92604,0.477027 -0.73004,0.176517 -0.73004,0.176517 -2.31267,1.153061 -2.31267,1.153062 -0.79375,0.445926 -0.79375,0.445926 -1.05833,0.631536 -1.05833,0.631536 -0.66146,0.332592 -0.66146,0.332593 -1.22735,1.003107 -1.22734,1.003107 h -0.23808 -0.23808 l -1.78837,1.5875 -1.78837,1.5875 h -0.24641 -0.2464 l -1.79147,1.818139 -1.79147,1.818135 -1.45068,1.5553 -1.45069,1.5553 -1.28925,1.5875 -1.28926,1.5875 -0.83507,1.32292 -0.83506,1.32292 -0.32483,0.52916 -0.32482,0.52917 -0.53824,0.92604 -0.53823,0.92604 -0.66076,1.05834 -0.66077,1.05833 -0.15226,0.39687 -0.15226,0.39688 -0.36457,0.79375 -0.36456,0.79375 -0.68466,1.85208 -0.68466,1.85209 -0.5127,1.08731 -0.51271,1.08731 v 0.57483 0.57483 l -0.35566,0.8514 -0.35567,0.8514 -0.43131,1.98437 -0.43132,1.98438 -0.27135,2.24202 -0.27135,2.24201 v 1.74879 1.74878 l 0.17639,0.17639 0.17638,0.17638 z m -24.28585,-15.49829 0.23081,-0.14265 v -0.5241 -0.52409 l 0.52917,-1.03725 0.52917,-1.03725 v -0.43754 -0.43754 l 0.49934,-0.96206 0.49934,-0.96207 0.83635,-1.77822 0.83636,-1.77822 0.2518,-0.15562 0.25181,-0.15563 v -0.39197 -0.39197 l 0.48746,-0.7169 0.48746,-0.71689 1.10004,-1.66195 1.10004,-1.66195 v -0.26343 -0.26343 l 0.76366,-0.85274 0.76366,-0.85275 1.353,-1.48077 1.35301,-1.48077 v -0.17801 -0.17802 l 1.43571,-1.516212 1.43572,-1.516214 0.87939,-0.93389 0.87939,-0.93389 0.71488,-0.31141 0.71487,-0.31141 0.4164,-0.805221 0.4164,-0.805221 h 0.2719 0.2719 l 1.77183,-1.405236 1.77182,-1.405237 1.98437,-1.287346 1.98438,-1.287347 0.66146,-0.43625 0.66146,-0.43625 3.0427,-1.48193 3.04271,-1.48193 2.57684,-1.091089 2.57684,-1.091089 1.12733,-0.19245 1.12733,-0.19245 -0.053,-0.257261 -0.053,-0.25726 -0.87301,-0.184021 -0.87301,-0.184022 -19.89834,-0.01862 -19.89833,-0.01862 -0.27615,0.515978 -0.27614,0.515977 0.003,19.001251 0.003,19.00125 0.16315,0.98693 0.16314,0.98693 z m 122.79654,0.15316 h 0.20094 V 102.38721 82.140031 l -0.68932,-0.262078 -0.68932,-0.262079 -19.61745,0.01842 -19.61745,0.01842 -0.87301,0.18406 -0.87301,0.184061 0.003,0.264583 0.003,0.264583 1.00206,0.151229 1.00206,0.151228 1.85208,0.682602 1.85209,0.682602 1.5875,0.775967 1.5875,0.775967 1.71979,0.843754 1.71979,0.843753 0.52917,0.317234 0.52916,0.317234 1.52966,0.999528 1.52967,0.999527 h 0.23251 0.23252 l 1.28053,0.993525 1.28053,0.993525 1.13517,0.769658 1.13517,0.769658 0.72817,0.816505 0.72817,0.816505 1.44395,1.240402 1.44395,1.240403 1.3408,1.273139 1.3408,1.273144 1.40895,1.71979 1.40895,1.71979 0.25074,0.16269 0.25075,0.1627 0.3068,0.54328 0.3068,0.54327 1.28169,1.78976 1.2817,1.78975 0.25327,0.54698 0.25327,0.54699 0.64595,1.05833 0.64595,1.05833 0.41577,0.89208 0.41577,0.89208 0.69059,1.0923 0.69059,1.09229 0.50627,1.32292 0.50626,1.32292 0.46198,1.4552 0.46198,1.45521 0.37218,0.59532 0.37219,0.59531 z m 131.30198,20.99055 -1.5875,0.12369 -0.79375,-0.12949 -0.79375,-0.12949 -0.33072,-0.27357 -0.33073,-0.27357 0.004,-0.6952 0.004,-0.69521 0.19439,-0.28388 0.19438,-0.28389 0.44761,-0.16492 0.4476,-0.16491 0.47209,-0.74183 0.47208,-0.74182 0.33708,-0.21159 0.33708,-0.21158 v -0.32493 -0.32492 l 0.52917,-0.45309 0.52917,-0.45309 v -0.46811 -0.46811 l -0.52917,-0.33047 -0.52917,-0.33047 v -0.39722 -0.39723 l -0.52916,-0.45308 -0.52917,-0.45309 v -0.47036 -0.47037 H 406.51 405.97429 l -0.27378,-0.7201 -0.27379,-0.72011 0.27708,-0.60812 0.27708,-0.60813 0.68194,-0.25927 0.68193,-0.25927 1.23955,0.009 1.23954,0.009 0.64816,0.35894 0.64815,0.35894 1.20393,-0.36545 1.20393,-0.36545 1.13298,-0.003 1.13298,-0.003 0.91754,0.38337 0.91754,0.38337 v 0.69236 0.69235 l -0.27389,0.51177 -0.27389,0.51178 h -0.51986 -0.51986 v 0.44082 0.44083 l -0.39548,0.41907 -0.39548,0.41907 -0.66285,0.83194 -0.66285,0.83195 v 0.32196 0.32196 l 1.05833,1.26406 1.05833,1.26407 v 0.28054 0.28055 l 0.92605,0.70632 0.92604,0.70633 v 0.72995 0.72995 l -0.43764,0.36313 -0.43764,0.36312 -2.40663,-0.0791 -2.40664,-0.079 -0.79375,-0.005 -0.79375,-0.005 z m 2.21902,-2.46972 h 0.25125 l 0.41851,-0.1606 0.41852,-0.16059 v -0.22697 -0.22697 l -0.55758,-0.2984 -0.55757,-0.29841 -0.27131,0.27131 -0.27131,0.27131 0.15912,0.41466 0.15912,0.41466 z m 0.44887,-7.67291 h 0.6835 l -0.10891,-0.33073 -0.10892,-0.33073 -0.57459,-0.0846 -0.57459,-0.0846 v 0.41528 0.41527 z M 221.24217,28.950989 l -0.33073,-0.02089 -0.39687,-0.151076 -0.39688,-0.151077 -0.19439,-0.291056 -0.19438,-0.291057 -0.004,-4.967486 -0.004,-4.967486 0.67868,-0.258035 0.67868,-0.258034 h 0.24736 0.24736 l 0.52917,0.529166 0.52916,0.529167 v 4.630208 4.630209 l -0.52916,0.529167 -0.52917,0.529166 z m -52.05677,-2.765864 -9.92188,0.121382 -0.46302,-0.267962 -0.46302,-0.267962 v -1.409665 -1.409664 l 0.40537,-0.336423 0.40536,-0.336423 19.50453,0.167925 19.50454,0.167924 7.19481,0.251013 7.19481,0.251012 0.54425,0.291273 0.54425,0.291273 v 0.487461 0.487461 l -0.35525,0.294834 -0.35526,0.294833 -2.48901,0.263214 -2.48902,0.263214 -14.41979,0.136949 -14.41979,0.13695 z m 103.10215,-0.179581 -12.48236,-0.05592 -7.14375,-0.181918 -7.14375,-0.181919 -7.01146,-0.171094 -7.01146,-0.171094 -0.57767,-0.120853 -0.57768,-0.120853 -0.17712,-0.558054 -0.17712,-0.558055 0.41555,-0.415552 0.41555,-0.415552 3.19647,-0.199736 3.19647,-0.199736 6.13861,-0.138602 6.13861,-0.138603 17.70691,-0.0486 17.70691,-0.0486 0.4832,0.596719 0.48319,0.596718 v 0.596466 0.596465 l -0.54837,0.69714 -0.54837,0.697139 z m -0.38798,-20.1116226 -13.4173,-0.05921 -8.86354,-0.179906 -8.86354,-0.179907 -23.98246,-0.234021 -23.98245,-0.23402 -0.43712,-0.362776 -0.43712,-0.362777 0.16508,-0.75159 0.16508,-0.751591 h -0.79588 -0.79587 l -0.41538,-0.415377 -0.41538,-0.415376 -0.15582,-0.620868 -0.15583,-0.620868 0.0893,-4.321568 0.0893,-4.321569 -20.10833,0.0545 -20.10834,0.0545 -6.52995,0.318772 -6.52994,0.318772 -0.67995,-0.445519 -0.67995,-0.445519 v -1.396192 -1.3961934 l 0.3175,-0.3175 0.3175,-0.3175 7.02469,-0.0039 7.02469,-0.0039 10.45104,0.275023 10.45104,0.275022 9.59645,0.230079 9.59644,0.23008 0.39595,0.328602 0.39594,0.3286014 -0.0705,0.691583 -0.0705,0.691583 1.0051,0.08289 1.0051,0.08289 0.27343,0.710863 0.27343,0.710863 -0.0879,4.657899 -0.0879,4.657898 11.77396,-0.09304 11.77396,-0.09304 34.60509,-0.09624 34.60508,-0.09624 0.38606,0.551184 0.38607,0.551185 v 0.81728 0.81728 l -0.53948,0.579057 -0.53947,0.579057 z m -51.74301,-33.6312594 -3.21387,0.06613 -0.66146,-0.197855 -0.66146,-0.197856 -0.0805,-1.09693 -0.0805,-1.096931 0.54654,-0.2925 0.54654,-0.292501 0.46003,0.07706 0.46003,0.07706 0.0785,-1.64134 0.0784,-1.64134 -0.54147,-0.541472 -0.54147,-0.541475 v -0.51986 -0.51985 l -0.52917,-0.2832 -0.52917,-0.28321 v -0.47885 -0.47885 l -0.48385,-0.43788 -0.48386,-0.43788 h -0.41388 -0.41388 l -0.1606,-0.41852 -0.16059,-0.41851 v -0.77866 -0.77866 l 0.65109,-0.24755 0.6511,-0.24754 1.26713,-0.16523 1.26713,-0.16524 1.27543,0.43616 1.27542,0.43615 1.77158,-0.45637 1.77157,-0.45637 1.16743,0.38915 1.16744,0.38914 0.2563,0.40632 0.2563,0.40633 -0.17864,0.71176 -0.17865,0.71177 -0.65407,0.24868 -0.65406,0.24867 v 0.36242 0.36242 l -0.52917,0.47889 -0.52917,0.47889 v 0.35845 0.35846 l -0.52916,0.45309 -0.52917,0.45308 v 0.347387 0.347383 l -0.41405,0.631924 -0.41406,0.631924 0.0833,0.997108 0.0833,0.997108 0.92604,0.237593 0.92604,0.237594 0.33073,0.273129 0.33073,0.273129 v 0.728957 0.728956 l -0.42415,0.352016 -0.42415,0.352015 z m -0.49462,-9.436615 h 0.22232 l 0.51359,-0.38138 0.51359,-0.38138 -0.29342,-0.47852 -0.29342,-0.47852 h -0.49671 -0.4967 l -0.0922,0.47848 -0.0921,0.47848 0.14636,0.38142 0.14636,0.38142 z"
       id="path8" /></g></svg>
